<svg width="298" height="95" viewBox="0 0 298 95" fill="none" xmlns="http://www.w3.org/2000/svg">
<g filter="url(#filter0_d_413_209)">
<rect x="10" y="10" width="278" height="75" rx="8" fill="white"/>
</g>
<path d="M95.6326 59.176C96.2513 59.3787 96.742 59.72 97.1046 60.2C97.4673 60.6693 97.6486 61.256 97.6486 61.96C97.6486 62.9307 97.2753 63.6827 96.5286 64.216C95.782 64.7387 94.694 65 93.2646 65H87.6966V53.8H92.9446C94.2673 53.8 95.286 54.0613 96.0006 54.584C96.7153 55.096 97.0726 55.8053 97.0726 56.712C97.0726 57.2667 96.9446 57.7573 96.6886 58.184C96.4326 58.6107 96.0806 58.9413 95.6326 59.176ZM89.7766 55.432V58.52H92.7206C93.446 58.52 94.0006 58.392 94.3846 58.136C94.7793 57.8693 94.9766 57.4853 94.9766 56.984C94.9766 56.472 94.7793 56.088 94.3846 55.832C94.0006 55.5653 93.446 55.432 92.7206 55.432H89.7766ZM93.1366 63.368C94.7473 63.368 95.5526 62.8293 95.5526 61.752C95.5526 60.6747 94.7473 60.136 93.1366 60.136H89.7766V63.368H93.1366ZM102.941 56.36C104.199 56.36 105.159 56.664 105.821 57.272C106.493 57.8693 106.829 58.776 106.829 59.992V65H104.941V63.96C104.695 64.3333 104.343 64.6213 103.885 64.824C103.437 65.016 102.893 65.112 102.253 65.112C101.613 65.112 101.053 65.0053 100.573 64.792C100.093 64.568 99.7192 64.264 99.4525 63.88C99.1965 63.4853 99.0685 63.0427 99.0685 62.552C99.0685 61.784 99.3512 61.1707 99.9165 60.712C100.493 60.2427 101.394 60.008 102.621 60.008H104.829V59.88C104.829 59.2827 104.647 58.824 104.285 58.504C103.933 58.184 103.405 58.024 102.701 58.024C102.221 58.024 101.746 58.0987 101.277 58.248C100.818 58.3973 100.429 58.6053 100.109 58.872L99.3245 57.416C99.7725 57.0747 100.311 56.8133 100.941 56.632C101.57 56.4507 102.237 56.36 102.941 56.36ZM102.669 63.656C103.17 63.656 103.613 63.544 103.997 63.32C104.391 63.0853 104.669 62.7547 104.829 62.328V61.336H102.765C101.613 61.336 101.037 61.7147 101.037 62.472C101.037 62.8347 101.181 63.1227 101.469 63.336C101.757 63.5493 102.157 63.656 102.669 63.656ZM114.531 64.536C114.297 64.728 114.009 64.872 113.667 64.968C113.337 65.064 112.985 65.112 112.611 65.112C111.673 65.112 110.947 64.8667 110.435 64.376C109.923 63.8853 109.667 63.1707 109.667 62.232V58.12H108.259V56.52H109.667V54.568H111.667V56.52H113.955V58.12H111.667V62.184C111.667 62.6 111.769 62.92 111.971 63.144C112.174 63.3573 112.467 63.464 112.851 63.464C113.299 63.464 113.673 63.3467 113.971 63.112L114.531 64.536ZM121.025 56.36C122.102 56.36 122.966 56.6747 123.617 57.304C124.267 57.9333 124.593 58.8667 124.593 60.104V65H122.593V60.36C122.593 59.6133 122.417 59.0533 122.065 58.68C121.713 58.296 121.211 58.104 120.561 58.104C119.825 58.104 119.243 58.328 118.817 58.776C118.39 59.2133 118.177 59.848 118.177 60.68V65H116.177V53.128H118.177V57.448C118.507 57.096 118.913 56.8293 119.393 56.648C119.883 56.456 120.427 56.36 121.025 56.36Z" fill="#3C3C43"/>
<rect x="86.1926" y="28" width="32" height="15" rx="2" fill="#60C8FA"/>
<path d="M95.3697 35.088C95.679 35.1893 95.9243 35.36 96.1057 35.6C96.287 35.8347 96.3777 36.128 96.3777 36.48C96.3777 36.9653 96.191 37.3413 95.8177 37.608C95.4443 37.8693 94.9003 38 94.1857 38H91.4017V32.4H94.0257C94.687 32.4 95.1963 32.5307 95.5537 32.792C95.911 33.048 96.0897 33.4027 96.0897 33.856C96.0897 34.1333 96.0257 34.3787 95.8977 34.592C95.7697 34.8053 95.5937 34.9707 95.3697 35.088ZM92.4417 33.216V34.76H93.9137C94.2763 34.76 94.5537 34.696 94.7457 34.568C94.943 34.4347 95.0417 34.2427 95.0417 33.992C95.0417 33.736 94.943 33.544 94.7457 33.416C94.5537 33.2827 94.2763 33.216 93.9137 33.216H92.4417ZM94.1217 37.184C94.927 37.184 95.3297 36.9147 95.3297 36.376C95.3297 35.8373 94.927 35.568 94.1217 35.568H92.4417V37.184H94.1217ZM101.12 36.704H98.3196L97.7676 38H96.6956L99.2156 32.4H100.24L102.768 38H101.68L101.12 36.704ZM100.776 35.888L99.7196 33.44L98.6716 35.888H100.776ZM104.335 33.28H102.479V32.4H107.231V33.28H105.375V38H104.335V33.28ZM112.987 32.4V38H111.947V35.6H109.051V38H108.011V32.4H109.051V34.712H111.947V32.4H112.987Z" fill="white"/>
<path d="M128.165 40.072C127.517 40.072 126.941 39.904 126.437 39.568C125.933 39.224 125.537 38.736 125.249 38.104C124.961 37.464 124.817 36.696 124.817 35.8C124.817 34.904 124.961 34.14 125.249 33.508C125.537 32.868 125.933 32.38 126.437 32.044C126.941 31.7 127.517 31.528 128.165 31.528C128.813 31.528 129.389 31.7 129.893 32.044C130.397 32.38 130.793 32.868 131.081 33.508C131.377 34.14 131.525 34.904 131.525 35.8C131.525 36.696 131.377 37.464 131.081 38.104C130.793 38.736 130.397 39.224 129.893 39.568C129.389 39.904 128.813 40.072 128.165 40.072ZM128.165 39.28C128.661 39.28 129.093 39.148 129.461 38.884C129.829 38.612 130.117 38.22 130.325 37.708C130.533 37.188 130.637 36.552 130.637 35.8C130.637 35.048 130.533 34.416 130.325 33.904C130.117 33.384 129.829 32.992 129.461 32.728C129.093 32.456 128.661 32.32 128.165 32.32C127.685 32.32 127.257 32.456 126.881 32.728C126.505 32.992 126.213 33.384 126.005 33.904C125.797 34.416 125.693 35.048 125.693 35.8C125.693 36.552 125.797 37.188 126.005 37.708C126.213 38.22 126.505 38.612 126.881 38.884C127.257 39.148 127.685 39.28 128.165 39.28ZM135.153 40.072C134.545 40.072 133.969 39.976 133.425 39.784C132.889 39.584 132.457 39.32 132.129 38.992L132.549 38.308C132.821 38.588 133.185 38.82 133.641 39.004C134.105 39.188 134.609 39.28 135.153 39.28C135.849 39.28 136.381 39.128 136.749 38.824C137.125 38.52 137.313 38.112 137.313 37.6C137.313 37.088 137.129 36.68 136.761 36.376C136.401 36.072 135.829 35.92 135.045 35.92H134.445V35.284L137.037 32.032L137.157 32.368H132.477V31.6H137.877V32.212L135.285 35.464L134.865 35.188H135.189C136.197 35.188 136.949 35.412 137.445 35.86C137.949 36.308 138.201 36.884 138.201 37.588C138.201 38.06 138.089 38.484 137.865 38.86C137.641 39.236 137.301 39.532 136.845 39.748C136.397 39.964 135.833 40.072 135.153 40.072ZM140.066 34.948C139.89 34.948 139.738 34.884 139.61 34.756C139.49 34.628 139.43 34.472 139.43 34.288C139.43 34.096 139.49 33.94 139.61 33.82C139.738 33.7 139.89 33.64 140.066 33.64C140.242 33.64 140.39 33.7 140.51 33.82C140.638 33.94 140.702 34.096 140.702 34.288C140.702 34.472 140.638 34.628 140.51 34.756C140.39 34.884 140.242 34.948 140.066 34.948ZM140.066 40.06C139.89 40.06 139.738 39.996 139.61 39.868C139.49 39.74 139.43 39.584 139.43 39.4C139.43 39.208 139.49 39.052 139.61 38.932C139.738 38.812 139.89 38.752 140.066 38.752C140.242 38.752 140.39 38.812 140.51 38.932C140.638 39.052 140.702 39.208 140.702 39.4C140.702 39.584 140.638 39.74 140.51 39.868C140.39 39.996 140.242 40.06 140.066 40.06ZM144.469 40.072C143.861 40.072 143.285 39.976 142.741 39.784C142.205 39.584 141.773 39.32 141.445 38.992L141.865 38.308C142.137 38.588 142.501 38.82 142.957 39.004C143.421 39.188 143.925 39.28 144.469 39.28C145.165 39.28 145.697 39.128 146.065 38.824C146.441 38.52 146.629 38.112 146.629 37.6C146.629 37.088 146.445 36.68 146.077 36.376C145.717 36.072 145.145 35.92 144.361 35.92H143.761V35.284L146.353 32.032L146.473 32.368H141.793V31.6H147.193V32.212L144.601 35.464L144.181 35.188H144.505C145.513 35.188 146.265 35.412 146.761 35.86C147.265 36.308 147.517 36.884 147.517 37.588C147.517 38.06 147.405 38.484 147.181 38.86C146.957 39.236 146.617 39.532 146.161 39.748C145.713 39.964 145.149 40.072 144.469 40.072ZM152.083 40.072C151.435 40.072 150.859 39.904 150.355 39.568C149.851 39.224 149.455 38.736 149.167 38.104C148.879 37.464 148.735 36.696 148.735 35.8C148.735 34.904 148.879 34.14 149.167 33.508C149.455 32.868 149.851 32.38 150.355 32.044C150.859 31.7 151.435 31.528 152.083 31.528C152.731 31.528 153.307 31.7 153.811 32.044C154.315 32.38 154.711 32.868 154.999 33.508C155.295 34.14 155.443 34.904 155.443 35.8C155.443 36.696 155.295 37.464 154.999 38.104C154.711 38.736 154.315 39.224 153.811 39.568C153.307 39.904 152.731 40.072 152.083 40.072ZM152.083 39.28C152.579 39.28 153.011 39.148 153.379 38.884C153.747 38.612 154.035 38.22 154.243 37.708C154.451 37.188 154.555 36.552 154.555 35.8C154.555 35.048 154.451 34.416 154.243 33.904C154.035 33.384 153.747 32.992 153.379 32.728C153.011 32.456 152.579 32.32 152.083 32.32C151.603 32.32 151.175 32.456 150.799 32.728C150.423 32.992 150.131 33.384 149.923 33.904C149.715 34.416 149.611 35.048 149.611 35.8C149.611 36.552 149.715 37.188 149.923 37.708C150.131 38.22 150.423 38.612 150.799 38.884C151.175 39.148 151.603 39.28 152.083 39.28ZM160.565 40V31.6H163.709C164.421 31.6 165.033 31.716 165.545 31.948C166.057 32.172 166.449 32.5 166.721 32.932C167.001 33.356 167.141 33.872 167.141 34.48C167.141 35.072 167.001 35.584 166.721 36.016C166.449 36.44 166.057 36.768 165.545 37C165.033 37.232 164.421 37.348 163.709 37.348H161.057L161.453 36.928V40H160.565ZM161.453 37L161.057 36.568H163.685C164.525 36.568 165.161 36.388 165.593 36.028C166.033 35.66 166.253 35.144 166.253 34.48C166.253 33.808 166.033 33.288 165.593 32.92C165.161 32.552 164.525 32.368 163.685 32.368H161.057L161.453 31.948V37ZM169.061 40V31.6H169.793L173.633 38.152H173.249L177.053 31.6H177.785V40H176.933V32.932H177.137L173.633 38.932H173.213L169.685 32.932H169.913V40H169.061Z" fill="#3C3C43"/>
<circle cx="51.6223" cy="48" r="19.5" stroke="#60C8FA"/>
<circle cx="51.6223" cy="48" r="17" stroke="#60C8FA" stroke-dasharray="2 2"/>
<path d="M44.6223 52C44.6232 52.4199 44.7127 52.8348 44.885 53.2176C45.0574 53.6005 45.3086 53.9426 45.6223 54.2216V55.5C45.6223 55.6326 45.675 55.7598 45.7688 55.8536C45.8625 55.9473 45.9897 56 46.1223 56H47.1223C47.2549 56 47.3821 55.9473 47.4759 55.8536C47.5696 55.7598 47.6223 55.6326 47.6223 55.5V55H55.6223V55.5C55.6223 55.6326 55.675 55.7598 55.7688 55.8536C55.8625 55.9473 55.9897 56 56.1223 56H57.1223C57.2549 56 57.3821 55.9473 57.4759 55.8536C57.5696 55.7598 57.6223 55.6326 57.6223 55.5V54.2216C57.936 53.9426 58.1873 53.6005 58.3596 53.2176C58.5319 52.8348 58.6215 52.4199 58.6223 52V50.5001H44.6223V52ZM59.1223 48.0001H46.1223V42.1642C46.1226 42.033 46.1617 41.9048 46.2348 41.7958C46.3079 41.6868 46.4116 41.6018 46.5328 41.5517C46.6541 41.5016 46.7875 41.4885 46.9162 41.514C47.0449 41.5396 47.1632 41.6028 47.2561 41.6955L47.8583 42.2973C47.4479 43.2311 47.6204 44.1445 48.1276 44.7889L48.1223 44.7942C48.0289 44.8879 47.9765 45.0148 47.9765 45.1472C47.9765 45.2795 48.0289 45.4064 48.1223 45.5001L48.4758 45.8536C48.5222 45.9 48.5773 45.9368 48.638 45.962C48.6986 45.9871 48.7637 46 48.8293 46C48.895 46 48.96 45.9871 49.0207 45.962C49.0814 45.9368 49.1365 45.9 49.1829 45.8536L52.4758 42.5608C52.5222 42.5143 52.559 42.4592 52.5842 42.3986C52.6093 42.3379 52.6222 42.2729 52.6222 42.2072C52.6222 42.1415 52.6093 42.0765 52.5842 42.0158C52.559 41.9552 52.5222 41.9 52.4758 41.8536L52.1223 41.5002C52.0286 41.4065 51.9014 41.3538 51.7689 41.3538C51.6363 41.3538 51.5092 41.4065 51.4154 41.5002L51.4101 41.5055C50.7658 40.9983 49.8529 40.8258 48.9186 41.2361L48.3167 40.6339C48.014 40.3312 47.6284 40.1251 47.2086 40.0416C46.7888 39.9581 46.3537 40.0009 45.9582 40.1647C45.5627 40.3285 45.2248 40.6059 44.987 40.9618C44.7492 41.3178 44.6223 41.7362 44.6223 42.1642V48.0001H44.1223C43.9897 48.0001 43.8625 48.0528 43.7688 48.1465C43.675 48.2403 43.6223 48.3675 43.6223 48.5001V49.0001C43.6223 49.1327 43.675 49.2599 43.7688 49.3536C43.8625 49.4474 43.9897 49.5001 44.1223 49.5001H59.1223C59.2549 49.5001 59.3821 49.4474 59.4759 49.3536C59.5696 49.2599 59.6223 49.1327 59.6223 49.0001V48.5001C59.6223 48.3675 59.5696 48.2403 59.4759 48.1465C59.3821 48.0528 59.2549 48.0001 59.1223 48.0001Z" fill="#60C8FA"/>
<defs>
<filter id="filter0_d_413_209" x="0" y="0" width="298" height="95" filterUnits="userSpaceOnUse" color-interpolation-filters="sRGB">
<feFlood flood-opacity="0" result="BackgroundImageFix"/>
<feColorMatrix in="SourceAlpha" type="matrix" values="0 0 0 0 0 0 0 0 0 0 0 0 0 0 0 0 0 0 127 0" result="hardAlpha"/>
<feOffset/>
<feGaussianBlur stdDeviation="5"/>
<feComposite in2="hardAlpha" operator="out"/>
<feColorMatrix type="matrix" values="0 0 0 0 0.377661 0 0 0 0 0.471527 0 0 0 0 0.878281 0 0 0 0.25 0"/>
<feBlend mode="normal" in2="BackgroundImageFix" result="effect1_dropShadow_413_209"/>
<feBlend mode="normal" in="SourceGraphic" in2="effect1_dropShadow_413_209" result="shape"/>
</filter>
</defs>
</svg>
