<svg width="331" height="95" viewBox="0 0 331 95" fill="none" xmlns="http://www.w3.org/2000/svg">
<g filter="url(#filter0_d_508_193)">
<rect x="43" y="10" width="278" height="75" rx="8" fill="white"/>
</g>
<path d="M128.633 59.176C129.251 59.3787 129.742 59.72 130.105 60.2C130.467 60.6693 130.649 61.256 130.649 61.96C130.649 62.9307 130.275 63.6827 129.529 64.216C128.782 64.7387 127.694 65 126.265 65H120.697V53.8H125.945C127.267 53.8 128.286 54.0613 129.001 54.584C129.715 55.096 130.073 55.8053 130.073 56.712C130.073 57.2667 129.945 57.7573 129.689 58.184C129.433 58.6107 129.081 58.9413 128.633 59.176ZM122.777 55.432V58.52H125.721C126.446 58.52 127.001 58.392 127.385 58.136C127.779 57.8693 127.977 57.4853 127.977 56.984C127.977 56.472 127.779 56.088 127.385 55.832C127.001 55.5653 126.446 55.432 125.721 55.432H122.777ZM126.137 63.368C127.747 63.368 128.553 62.8293 128.553 61.752C128.553 60.6747 127.747 60.136 126.137 60.136H122.777V63.368H126.137ZM135.941 56.36C137.199 56.36 138.159 56.664 138.821 57.272C139.493 57.8693 139.829 58.776 139.829 59.992V65H137.941V63.96C137.695 64.3333 137.343 64.6213 136.885 64.824C136.437 65.016 135.893 65.112 135.253 65.112C134.613 65.112 134.053 65.0053 133.573 64.792C133.093 64.568 132.719 64.264 132.453 63.88C132.197 63.4853 132.069 63.0427 132.069 62.552C132.069 61.784 132.351 61.1707 132.917 60.712C133.493 60.2427 134.394 60.008 135.621 60.008H137.829V59.88C137.829 59.2827 137.647 58.824 137.285 58.504C136.933 58.184 136.405 58.024 135.701 58.024C135.221 58.024 134.746 58.0987 134.277 58.248C133.818 58.3973 133.429 58.6053 133.109 58.872L132.325 57.416C132.773 57.0747 133.311 56.8133 133.941 56.632C134.57 56.4507 135.237 56.36 135.941 56.36ZM135.669 63.656C136.17 63.656 136.613 63.544 136.997 63.32C137.391 63.0853 137.669 62.7547 137.829 62.328V61.336H135.765C134.613 61.336 134.037 61.7147 134.037 62.472C134.037 62.8347 134.181 63.1227 134.469 63.336C134.757 63.5493 135.157 63.656 135.669 63.656ZM147.531 64.536C147.297 64.728 147.009 64.872 146.667 64.968C146.337 65.064 145.985 65.112 145.611 65.112C144.673 65.112 143.947 64.8667 143.435 64.376C142.923 63.8853 142.667 63.1707 142.667 62.232V58.12H141.259V56.52H142.667V54.568H144.667V56.52H146.955V58.12H144.667V62.184C144.667 62.6 144.769 62.92 144.971 63.144C145.174 63.3573 145.467 63.464 145.851 63.464C146.299 63.464 146.673 63.3467 146.971 63.112L147.531 64.536ZM154.025 56.36C155.102 56.36 155.966 56.6747 156.617 57.304C157.267 57.9333 157.593 58.8667 157.593 60.104V65H155.593V60.36C155.593 59.6133 155.417 59.0533 155.065 58.68C154.713 58.296 154.211 58.104 153.561 58.104C152.825 58.104 152.243 58.328 151.817 58.776C151.39 59.2133 151.177 59.848 151.177 60.68V65H149.177V53.128H151.177V57.448C151.507 57.096 151.913 56.8293 152.393 56.648C152.883 56.456 153.427 56.36 154.025 56.36Z" fill="#3C3C43"/>
<rect x="119.193" y="28" width="32" height="15" rx="2" fill="#60C8FA"/>
<path d="M128.37 35.088C128.679 35.1893 128.924 35.36 129.106 35.6C129.287 35.8347 129.378 36.128 129.378 36.48C129.378 36.9653 129.191 37.3413 128.818 37.608C128.444 37.8693 127.9 38 127.186 38H124.402V32.4H127.026C127.687 32.4 128.196 32.5307 128.554 32.792C128.911 33.048 129.09 33.4027 129.09 33.856C129.09 34.1333 129.026 34.3787 128.898 34.592C128.77 34.8053 128.594 34.9707 128.37 35.088ZM125.442 33.216V34.76H126.914C127.276 34.76 127.554 34.696 127.746 34.568C127.943 34.4347 128.042 34.2427 128.042 33.992C128.042 33.736 127.943 33.544 127.746 33.416C127.554 33.2827 127.276 33.216 126.914 33.216H125.442ZM127.122 37.184C127.927 37.184 128.33 36.9147 128.33 36.376C128.33 35.8373 127.927 35.568 127.122 35.568H125.442V37.184H127.122ZM134.12 36.704H131.32L130.768 38H129.696L132.216 32.4H133.24L135.768 38H134.68L134.12 36.704ZM133.776 35.888L132.72 33.44L131.672 35.888H133.776ZM137.335 33.28H135.479V32.4H140.231V33.28H138.375V38H137.335V33.28ZM145.987 32.4V38H144.947V35.6H142.051V38H141.011V32.4H142.051V34.712H144.947V32.4H145.987Z" fill="white"/>
<path d="M161.165 40.072C160.517 40.072 159.941 39.904 159.437 39.568C158.933 39.224 158.537 38.736 158.249 38.104C157.961 37.464 157.817 36.696 157.817 35.8C157.817 34.904 157.961 34.14 158.249 33.508C158.537 32.868 158.933 32.38 159.437 32.044C159.941 31.7 160.517 31.528 161.165 31.528C161.813 31.528 162.389 31.7 162.893 32.044C163.397 32.38 163.793 32.868 164.081 33.508C164.377 34.14 164.525 34.904 164.525 35.8C164.525 36.696 164.377 37.464 164.081 38.104C163.793 38.736 163.397 39.224 162.893 39.568C162.389 39.904 161.813 40.072 161.165 40.072ZM161.165 39.28C161.661 39.28 162.093 39.148 162.461 38.884C162.829 38.612 163.117 38.22 163.325 37.708C163.533 37.188 163.637 36.552 163.637 35.8C163.637 35.048 163.533 34.416 163.325 33.904C163.117 33.384 162.829 32.992 162.461 32.728C162.093 32.456 161.661 32.32 161.165 32.32C160.685 32.32 160.257 32.456 159.881 32.728C159.505 32.992 159.213 33.384 159.005 33.904C158.797 34.416 158.693 35.048 158.693 35.8C158.693 36.552 158.797 37.188 159.005 37.708C159.213 38.22 159.505 38.612 159.881 38.884C160.257 39.148 160.685 39.28 161.165 39.28ZM168.153 40.072C167.545 40.072 166.969 39.976 166.425 39.784C165.889 39.584 165.457 39.32 165.129 38.992L165.549 38.308C165.821 38.588 166.185 38.82 166.641 39.004C167.105 39.188 167.609 39.28 168.153 39.28C168.849 39.28 169.381 39.128 169.749 38.824C170.125 38.52 170.313 38.112 170.313 37.6C170.313 37.088 170.129 36.68 169.761 36.376C169.401 36.072 168.829 35.92 168.045 35.92H167.445V35.284L170.037 32.032L170.157 32.368H165.477V31.6H170.877V32.212L168.285 35.464L167.865 35.188H168.189C169.197 35.188 169.949 35.412 170.445 35.86C170.949 36.308 171.201 36.884 171.201 37.588C171.201 38.06 171.089 38.484 170.865 38.86C170.641 39.236 170.301 39.532 169.845 39.748C169.397 39.964 168.833 40.072 168.153 40.072ZM173.066 34.948C172.89 34.948 172.738 34.884 172.61 34.756C172.49 34.628 172.43 34.472 172.43 34.288C172.43 34.096 172.49 33.94 172.61 33.82C172.738 33.7 172.89 33.64 173.066 33.64C173.242 33.64 173.39 33.7 173.51 33.82C173.638 33.94 173.702 34.096 173.702 34.288C173.702 34.472 173.638 34.628 173.51 34.756C173.39 34.884 173.242 34.948 173.066 34.948ZM173.066 40.06C172.89 40.06 172.738 39.996 172.61 39.868C172.49 39.74 172.43 39.584 172.43 39.4C172.43 39.208 172.49 39.052 172.61 38.932C172.738 38.812 172.89 38.752 173.066 38.752C173.242 38.752 173.39 38.812 173.51 38.932C173.638 39.052 173.702 39.208 173.702 39.4C173.702 39.584 173.638 39.74 173.51 39.868C173.39 39.996 173.242 40.06 173.066 40.06ZM177.469 40.072C176.861 40.072 176.285 39.976 175.741 39.784C175.205 39.584 174.773 39.32 174.445 38.992L174.865 38.308C175.137 38.588 175.501 38.82 175.957 39.004C176.421 39.188 176.925 39.28 177.469 39.28C178.165 39.28 178.697 39.128 179.065 38.824C179.441 38.52 179.629 38.112 179.629 37.6C179.629 37.088 179.445 36.68 179.077 36.376C178.717 36.072 178.145 35.92 177.361 35.92H176.761V35.284L179.353 32.032L179.473 32.368H174.793V31.6H180.193V32.212L177.601 35.464L177.181 35.188H177.505C178.513 35.188 179.265 35.412 179.761 35.86C180.265 36.308 180.517 36.884 180.517 37.588C180.517 38.06 180.405 38.484 180.181 38.86C179.957 39.236 179.617 39.532 179.161 39.748C178.713 39.964 178.149 40.072 177.469 40.072ZM185.083 40.072C184.435 40.072 183.859 39.904 183.355 39.568C182.851 39.224 182.455 38.736 182.167 38.104C181.879 37.464 181.735 36.696 181.735 35.8C181.735 34.904 181.879 34.14 182.167 33.508C182.455 32.868 182.851 32.38 183.355 32.044C183.859 31.7 184.435 31.528 185.083 31.528C185.731 31.528 186.307 31.7 186.811 32.044C187.315 32.38 187.711 32.868 187.999 33.508C188.295 34.14 188.443 34.904 188.443 35.8C188.443 36.696 188.295 37.464 187.999 38.104C187.711 38.736 187.315 39.224 186.811 39.568C186.307 39.904 185.731 40.072 185.083 40.072ZM185.083 39.28C185.579 39.28 186.011 39.148 186.379 38.884C186.747 38.612 187.035 38.22 187.243 37.708C187.451 37.188 187.555 36.552 187.555 35.8C187.555 35.048 187.451 34.416 187.243 33.904C187.035 33.384 186.747 32.992 186.379 32.728C186.011 32.456 185.579 32.32 185.083 32.32C184.603 32.32 184.175 32.456 183.799 32.728C183.423 32.992 183.131 33.384 182.923 33.904C182.715 34.416 182.611 35.048 182.611 35.8C182.611 36.552 182.715 37.188 182.923 37.708C183.131 38.22 183.423 38.612 183.799 38.884C184.175 39.148 184.603 39.28 185.083 39.28ZM193.565 40V31.6H196.709C197.421 31.6 198.033 31.716 198.545 31.948C199.057 32.172 199.449 32.5 199.721 32.932C200.001 33.356 200.141 33.872 200.141 34.48C200.141 35.072 200.001 35.584 199.721 36.016C199.449 36.44 199.057 36.768 198.545 37C198.033 37.232 197.421 37.348 196.709 37.348H194.057L194.453 36.928V40H193.565ZM194.453 37L194.057 36.568H196.685C197.525 36.568 198.161 36.388 198.593 36.028C199.033 35.66 199.253 35.144 199.253 34.48C199.253 33.808 199.033 33.288 198.593 32.92C198.161 32.552 197.525 32.368 196.685 32.368H194.057L194.453 31.948V37ZM202.061 40V31.6H202.793L206.633 38.152H206.249L210.053 31.6H210.785V40H209.933V32.932H210.137L206.633 38.932H206.213L202.685 32.932H202.913V40H202.061Z" fill="#3C3C43"/>
<circle cx="84.6223" cy="48" r="19.5" stroke="#60C8FA"/>
<circle cx="84.6223" cy="48" r="17" stroke="#60C8FA" stroke-dasharray="2 2"/>
<path d="M77.6223 52C77.6232 52.4199 77.7127 52.8348 77.885 53.2176C78.0574 53.6005 78.3086 53.9426 78.6223 54.2216V55.5C78.6223 55.6326 78.675 55.7598 78.7688 55.8536C78.8625 55.9473 78.9897 56 79.1223 56H80.1223C80.2549 56 80.3821 55.9473 80.4759 55.8536C80.5696 55.7598 80.6223 55.6326 80.6223 55.5V55H88.6223V55.5C88.6223 55.6326 88.675 55.7598 88.7688 55.8536C88.8625 55.9473 88.9897 56 89.1223 56H90.1223C90.2549 56 90.3821 55.9473 90.4759 55.8536C90.5696 55.7598 90.6223 55.6326 90.6223 55.5V54.2216C90.936 53.9426 91.1873 53.6005 91.3596 53.2176C91.5319 52.8348 91.6215 52.4199 91.6223 52V50.5001H77.6223V52ZM92.1223 48.0001H79.1223V42.1642C79.1226 42.033 79.1617 41.9048 79.2348 41.7958C79.3079 41.6868 79.4116 41.6018 79.5328 41.5517C79.6541 41.5016 79.7875 41.4885 79.9162 41.514C80.0449 41.5396 80.1632 41.6028 80.2561 41.6955L80.8583 42.2973C80.4479 43.2311 80.6204 44.1445 81.1276 44.7889L81.1223 44.7942C81.0289 44.8879 80.9765 45.0148 80.9765 45.1472C80.9765 45.2795 81.0289 45.4064 81.1223 45.5001L81.4758 45.8536C81.5222 45.9 81.5773 45.9368 81.638 45.962C81.6986 45.9871 81.7637 46 81.8293 46C81.895 46 81.96 45.9871 82.0207 45.962C82.0814 45.9368 82.1365 45.9 82.1829 45.8536L85.4758 42.5608C85.5222 42.5143 85.559 42.4592 85.5842 42.3986C85.6093 42.3379 85.6222 42.2729 85.6222 42.2072C85.6222 42.1415 85.6093 42.0765 85.5842 42.0158C85.559 41.9552 85.5222 41.9 85.4758 41.8536L85.1223 41.5002C85.0286 41.4065 84.9014 41.3538 84.7689 41.3538C84.6363 41.3538 84.5092 41.4065 84.4154 41.5002L84.4101 41.5055C83.7658 40.9983 82.8529 40.8258 81.9186 41.2361L81.3167 40.6339C81.014 40.3312 80.6284 40.1251 80.2086 40.0416C79.7888 39.9581 79.3537 40.0009 78.9582 40.1647C78.5627 40.3285 78.2248 40.6059 77.987 40.9618C77.7492 41.3178 77.6223 41.7362 77.6223 42.1642V48.0001H77.1223C76.9897 48.0001 76.8625 48.0528 76.7688 48.1465C76.675 48.2403 76.6223 48.3675 76.6223 48.5001V49.0001C76.6223 49.1327 76.675 49.2599 76.7688 49.3536C76.8625 49.4474 76.9897 49.5001 77.1223 49.5001H92.1223C92.2549 49.5001 92.3821 49.4474 92.4759 49.3536C92.5696 49.2599 92.6223 49.1327 92.6223 49.0001V48.5001C92.6223 48.3675 92.5696 48.2403 92.4759 48.1465C92.3821 48.0528 92.2549 48.0001 92.1223 48.0001Z" fill="#60C8FA"/>
<g filter="url(#filter1_d_508_193)">
<circle cx="19.5" cy="20.5" r="10.5" fill="url(#paint0_radial_508_193)"/>
</g>
<g filter="url(#filter2_d_508_193)">
<line x1="30" y1="20.25" x2="321" y2="20.25" stroke="#6078E0" stroke-width="1.5"/>
</g>
<circle cx="19.5" cy="20.5" r="7.5" fill="#6078E0"/>
<defs>
<filter id="filter0_d_508_193" x="33" y="0" width="298" height="95" filterUnits="userSpaceOnUse" color-interpolation-filters="sRGB">
<feFlood flood-opacity="0" result="BackgroundImageFix"/>
<feColorMatrix in="SourceAlpha" type="matrix" values="0 0 0 0 0 0 0 0 0 0 0 0 0 0 0 0 0 0 127 0" result="hardAlpha"/>
<feOffset/>
<feGaussianBlur stdDeviation="5"/>
<feComposite in2="hardAlpha" operator="out"/>
<feColorMatrix type="matrix" values="0 0 0 0 0.377661 0 0 0 0 0.471527 0 0 0 0 0.878281 0 0 0 0.25 0"/>
<feBlend mode="normal" in2="BackgroundImageFix" result="effect1_dropShadow_508_193"/>
<feBlend mode="normal" in="SourceGraphic" in2="effect1_dropShadow_508_193" result="shape"/>
</filter>
<filter id="filter1_d_508_193" x="0" y="1" width="39" height="39" filterUnits="userSpaceOnUse" color-interpolation-filters="sRGB">
<feFlood flood-opacity="0" result="BackgroundImageFix"/>
<feColorMatrix in="SourceAlpha" type="matrix" values="0 0 0 0 0 0 0 0 0 0 0 0 0 0 0 0 0 0 127 0" result="hardAlpha"/>
<feMorphology radius="2" operator="dilate" in="SourceAlpha" result="effect1_dropShadow_508_193"/>
<feOffset/>
<feGaussianBlur stdDeviation="3.5"/>
<feComposite in2="hardAlpha" operator="out"/>
<feColorMatrix type="matrix" values="0 0 0 0 0.377661 0 0 0 0 0.471527 0 0 0 0 0.878281 0 0 0 0.5 0"/>
<feBlend mode="normal" in2="BackgroundImageFix" result="effect1_dropShadow_508_193"/>
<feBlend mode="normal" in="SourceGraphic" in2="effect1_dropShadow_508_193" result="shape"/>
</filter>
<filter id="filter2_d_508_193" x="23" y="12.5" width="305" height="15.5" filterUnits="userSpaceOnUse" color-interpolation-filters="sRGB">
<feFlood flood-opacity="0" result="BackgroundImageFix"/>
<feColorMatrix in="SourceAlpha" type="matrix" values="0 0 0 0 0 0 0 0 0 0 0 0 0 0 0 0 0 0 127 0" result="hardAlpha"/>
<feOffset/>
<feGaussianBlur stdDeviation="3.5"/>
<feComposite in2="hardAlpha" operator="out"/>
<feColorMatrix type="matrix" values="0 0 0 0 0.377661 0 0 0 0 0.471527 0 0 0 0 0.878281 0 0 0 0.5 0"/>
<feBlend mode="normal" in2="BackgroundImageFix" result="effect1_dropShadow_508_193"/>
<feBlend mode="normal" in="SourceGraphic" in2="effect1_dropShadow_508_193" result="shape"/>
</filter>
<radialGradient id="paint0_radial_508_193" cx="0" cy="0" r="1" gradientUnits="userSpaceOnUse" gradientTransform="translate(19.5 20.5) rotate(90) scale(10.5)">
<stop stop-color="#6078E0"/>
<stop offset="1" stop-color="#BDC9FF"/>
</radialGradient>
</defs>
</svg>
