<svg width="61" height="51" viewBox="0 0 61 51" fill="none" xmlns="http://www.w3.org/2000/svg">
<path d="M29.8811 48L29.8691 42.432L27.1091 47.04H26.4131L23.6531 42.504V48H22.1651V39.6H23.4491L26.7851 45.168L30.0611 39.6H31.3451L31.3571 48H29.8811ZM39.506 44.832C39.506 44.936 39.498 45.084 39.482 45.276H34.454C34.542 45.748 34.77 46.124 35.138 46.404C35.514 46.676 35.978 46.812 36.53 46.812C37.234 46.812 37.814 46.58 38.27 46.116L39.074 47.04C38.786 47.384 38.422 47.644 37.982 47.82C37.542 47.996 37.046 48.084 36.494 48.084C35.79 48.084 35.17 47.944 34.634 47.664C34.098 47.384 33.682 46.996 33.386 46.5C33.098 45.996 32.954 45.428 32.954 44.796C32.954 44.172 33.094 43.612 33.374 43.116C33.662 42.612 34.058 42.22 34.562 41.94C35.066 41.66 35.634 41.52 36.266 41.52C36.89 41.52 37.446 41.66 37.934 41.94C38.43 42.212 38.814 42.6 39.086 43.104C39.366 43.6 39.506 44.176 39.506 44.832ZM36.266 42.72C35.786 42.72 35.378 42.864 35.042 43.152C34.714 43.432 34.514 43.808 34.442 44.28H38.078C38.014 43.816 37.818 43.44 37.49 43.152C37.162 42.864 36.754 42.72 36.266 42.72Z" fill="#3C3C43" fill-opacity="0.6"/>
<path d="M31 0C33.1217 0 35.1566 0.842854 36.6569 2.34315C38.1571 3.84344 39 5.87827 39 8C39 10.1217 38.1571 12.1566 36.6569 13.6569C35.1566 15.1571 33.1217 16 31 16C28.8783 16 26.8434 15.1571 25.3431 13.6569C23.8429 12.1566 23 10.1217 23 8C23 5.87827 23.8429 3.84344 25.3431 2.34315C26.8434 0.842854 28.8783 0 31 0ZM31 20C39.84 20 47 23.58 47 28V32H15V28C15 23.58 22.16 20 31 20Z" fill="#3C3C43" fill-opacity="0.3"/>
</svg>
