<svg width="331" height="95" viewBox="0 0 331 95" fill="none" xmlns="http://www.w3.org/2000/svg">
<g filter="url(#filter0_d_517_197)">
<rect x="43" y="10" width="278" height="75" rx="8" fill="white"/>
</g>
<rect x="118.163" y="29" width="35" height="15" rx="2" fill="#BA91DE"/>
<path d="M124.979 39.08C124.547 39.08 124.129 39.0187 123.723 38.896C123.323 38.7733 123.006 38.6107 122.771 38.408L123.131 37.6C123.361 37.7813 123.641 37.9307 123.971 38.048C124.307 38.16 124.643 38.216 124.979 38.216C125.395 38.216 125.705 38.1493 125.907 38.016C126.115 37.8827 126.219 37.7067 126.219 37.488C126.219 37.328 126.161 37.1973 126.043 37.096C125.931 36.9893 125.787 36.9067 125.611 36.848C125.435 36.7893 125.195 36.7227 124.891 36.648C124.465 36.5467 124.118 36.4453 123.851 36.344C123.59 36.2427 123.363 36.0853 123.171 35.872C122.985 35.6533 122.891 35.36 122.891 34.992C122.891 34.6827 122.974 34.4027 123.139 34.152C123.31 33.896 123.563 33.6933 123.899 33.544C124.241 33.3947 124.657 33.32 125.147 33.32C125.489 33.32 125.825 33.3627 126.155 33.448C126.486 33.5333 126.771 33.656 127.011 33.816L126.683 34.624C126.438 34.48 126.182 34.3707 125.915 34.296C125.649 34.2213 125.39 34.184 125.139 34.184C124.729 34.184 124.422 34.2533 124.219 34.392C124.022 34.5307 123.923 34.7147 123.923 34.944C123.923 35.104 123.979 35.2347 124.091 35.336C124.209 35.4373 124.355 35.5173 124.531 35.576C124.707 35.6347 124.947 35.7013 125.251 35.776C125.667 35.872 126.009 35.9733 126.275 36.08C126.542 36.1813 126.769 36.3387 126.955 36.552C127.147 36.7653 127.243 37.0533 127.243 37.416C127.243 37.7253 127.158 38.0053 126.987 38.256C126.822 38.5067 126.569 38.7067 126.227 38.856C125.886 39.0053 125.47 39.08 124.979 39.08ZM128.274 33.4H129.314V38.12H132.242V39H128.274V33.4ZM137.264 38.128V39H133.064V33.4H137.152V34.272H134.104V35.728H136.808V36.584H134.104V38.128H137.264ZM142.623 38.128V39H138.423V33.4H142.511V34.272H139.463V35.728H142.167V36.584H139.463V38.128H142.623ZM146.086 33.4C146.572 33.4 146.993 33.48 147.35 33.64C147.713 33.8 147.99 34.0293 148.182 34.328C148.374 34.6267 148.47 34.9813 148.47 35.392C148.47 35.7973 148.374 36.152 148.182 36.456C147.99 36.7547 147.713 36.984 147.35 37.144C146.993 37.304 146.572 37.384 146.086 37.384H144.822V39H143.782V33.4H146.086ZM146.038 36.504C146.492 36.504 146.836 36.408 147.07 36.216C147.305 36.024 147.422 35.7493 147.422 35.392C147.422 35.0347 147.305 34.76 147.07 34.568C146.836 34.376 146.492 34.28 146.038 34.28H144.822V36.504H146.038Z" fill="white"/>
<circle cx="84.6223" cy="48" r="19.5" stroke="#BA91DE"/>
<circle cx="84.6223" cy="48" r="17" stroke="#BA91DE" stroke-dasharray="2 2"/>
<path d="M76.4675 51.2449C77.2955 51.5115 78.1601 51.6469 79.0299 51.6461C83.6363 51.6461 87.3705 47.9119 87.3705 43.3056C87.3719 42.1687 87.1401 41.0436 86.6894 39.9999C90.0427 41.0809 92.4675 44.2267 92.4675 47.9392C92.4675 52.5455 88.7333 56.2798 84.127 56.2798C80.6948 56.2798 77.7473 54.2072 76.4675 51.2449Z" fill="#BA91DE" stroke="#BA91DE" stroke-width="0.904437" stroke-linejoin="round"/>
<g filter="url(#filter1_d_517_197)">
<circle cx="19.5" cy="20.5" r="10.5" fill="url(#paint0_radial_517_197)"/>
</g>
<g filter="url(#filter2_d_517_197)">
<line x1="30" y1="20.25" x2="321" y2="20.25" stroke="#6078E0" stroke-width="1.5"/>
</g>
<circle cx="19.5" cy="20.5" r="7.5" fill="#6078E0"/>
<defs>
<filter id="filter0_d_517_197" x="33" y="0" width="298" height="95" filterUnits="userSpaceOnUse" color-interpolation-filters="sRGB">
<feFlood flood-opacity="0" result="BackgroundImageFix"/>
<feColorMatrix in="SourceAlpha" type="matrix" values="0 0 0 0 0 0 0 0 0 0 0 0 0 0 0 0 0 0 127 0" result="hardAlpha"/>
<feOffset/>
<feGaussianBlur stdDeviation="5"/>
<feComposite in2="hardAlpha" operator="out"/>
<feColorMatrix type="matrix" values="0 0 0 0 0.377661 0 0 0 0 0.471527 0 0 0 0 0.878281 0 0 0 0.25 0"/>
<feBlend mode="normal" in2="BackgroundImageFix" result="effect1_dropShadow_517_197"/>
<feBlend mode="normal" in="SourceGraphic" in2="effect1_dropShadow_517_197" result="shape"/>
</filter>
<filter id="filter1_d_517_197" x="0" y="1" width="39" height="39" filterUnits="userSpaceOnUse" color-interpolation-filters="sRGB">
<feFlood flood-opacity="0" result="BackgroundImageFix"/>
<feColorMatrix in="SourceAlpha" type="matrix" values="0 0 0 0 0 0 0 0 0 0 0 0 0 0 0 0 0 0 127 0" result="hardAlpha"/>
<feMorphology radius="2" operator="dilate" in="SourceAlpha" result="effect1_dropShadow_517_197"/>
<feOffset/>
<feGaussianBlur stdDeviation="3.5"/>
<feComposite in2="hardAlpha" operator="out"/>
<feColorMatrix type="matrix" values="0 0 0 0 0.377661 0 0 0 0 0.471527 0 0 0 0 0.878281 0 0 0 0.5 0"/>
<feBlend mode="normal" in2="BackgroundImageFix" result="effect1_dropShadow_517_197"/>
<feBlend mode="normal" in="SourceGraphic" in2="effect1_dropShadow_517_197" result="shape"/>
</filter>
<filter id="filter2_d_517_197" x="23" y="12.5" width="305" height="15.5" filterUnits="userSpaceOnUse" color-interpolation-filters="sRGB">
<feFlood flood-opacity="0" result="BackgroundImageFix"/>
<feColorMatrix in="SourceAlpha" type="matrix" values="0 0 0 0 0 0 0 0 0 0 0 0 0 0 0 0 0 0 127 0" result="hardAlpha"/>
<feOffset/>
<feGaussianBlur stdDeviation="3.5"/>
<feComposite in2="hardAlpha" operator="out"/>
<feColorMatrix type="matrix" values="0 0 0 0 0.377661 0 0 0 0 0.471527 0 0 0 0 0.878281 0 0 0 0.5 0"/>
<feBlend mode="normal" in2="BackgroundImageFix" result="effect1_dropShadow_517_197"/>
<feBlend mode="normal" in="SourceGraphic" in2="effect1_dropShadow_517_197" result="shape"/>
</filter>
<radialGradient id="paint0_radial_517_197" cx="0" cy="0" r="1" gradientUnits="userSpaceOnUse" gradientTransform="translate(19.5 20.5) rotate(90) scale(10.5)">
<stop stop-color="#6078E0"/>
<stop offset="1" stop-color="#BDC9FF"/>
</radialGradient>
</defs>
</svg>
