<svg width="298" height="95" viewBox="0 0 298 95" fill="none" xmlns="http://www.w3.org/2000/svg">
<g filter="url(#filter0_d_517_196)">
<rect x="10" y="10" width="278" height="75" rx="8" fill="white"/>
</g>
<rect x="85.1631" y="29" width="35" height="15" rx="2" fill="#BA91DE"/>
<path d="M91.9792 39.08C91.5472 39.08 91.1285 39.0187 90.7232 38.896C90.3232 38.7733 90.0059 38.6107 89.7712 38.408L90.1312 37.6C90.3605 37.7813 90.6405 37.9307 90.9712 38.048C91.3072 38.16 91.6432 38.216 91.9792 38.216C92.3952 38.216 92.7045 38.1493 92.9072 38.016C93.1152 37.8827 93.2192 37.7067 93.2192 37.488C93.2192 37.328 93.1605 37.1973 93.0432 37.096C92.9312 36.9893 92.7872 36.9067 92.6112 36.848C92.4352 36.7893 92.1952 36.7227 91.8912 36.648C91.4645 36.5467 91.1179 36.4453 90.8512 36.344C90.5899 36.2427 90.3632 36.0853 90.1712 35.872C89.9845 35.6533 89.8912 35.36 89.8912 34.992C89.8912 34.6827 89.9739 34.4027 90.1392 34.152C90.3099 33.896 90.5632 33.6933 90.8992 33.544C91.2405 33.3947 91.6565 33.32 92.1472 33.32C92.4885 33.32 92.8245 33.3627 93.1552 33.448C93.4859 33.5333 93.7712 33.656 94.0112 33.816L93.6832 34.624C93.4379 34.48 93.1819 34.3707 92.9152 34.296C92.6485 34.2213 92.3899 34.184 92.1392 34.184C91.7285 34.184 91.4219 34.2533 91.2192 34.392C91.0219 34.5307 90.9232 34.7147 90.9232 34.944C90.9232 35.104 90.9792 35.2347 91.0912 35.336C91.2085 35.4373 91.3552 35.5173 91.5312 35.576C91.7072 35.6347 91.9472 35.7013 92.2512 35.776C92.6672 35.872 93.0085 35.9733 93.2752 36.08C93.5419 36.1813 93.7685 36.3387 93.9552 36.552C94.1472 36.7653 94.2432 37.0533 94.2432 37.416C94.2432 37.7253 94.1579 38.0053 93.9872 38.256C93.8219 38.5067 93.5685 38.7067 93.2272 38.856C92.8859 39.0053 92.4699 39.08 91.9792 39.08ZM95.2745 33.4H96.3145V38.12H99.2425V39H95.2745V33.4ZM104.264 38.128V39H100.064V33.4H104.152V34.272H101.104V35.728H103.808V36.584H101.104V38.128H104.264ZM109.623 38.128V39H105.423V33.4H109.511V34.272H106.463V35.728H109.167V36.584H106.463V38.128H109.623ZM113.086 33.4C113.572 33.4 113.993 33.48 114.35 33.64C114.713 33.8 114.99 34.0293 115.182 34.328C115.374 34.6267 115.47 34.9813 115.47 35.392C115.47 35.7973 115.374 36.152 115.182 36.456C114.99 36.7547 114.713 36.984 114.35 37.144C113.993 37.304 113.572 37.384 113.086 37.384H111.822V39H110.782V33.4H113.086ZM113.038 36.504C113.492 36.504 113.836 36.408 114.07 36.216C114.305 36.024 114.422 35.7493 114.422 35.392C114.422 35.0347 114.305 34.76 114.07 34.568C113.836 34.376 113.492 34.28 113.038 34.28H111.822V36.504H113.038Z" fill="white"/>
<circle cx="51.6223" cy="48" r="19.5" stroke="#BA91DE"/>
<circle cx="51.6223" cy="48" r="17" stroke="#BA91DE" stroke-dasharray="2 2"/>
<path d="M43.4675 51.2449C44.2955 51.5115 45.1601 51.6469 46.0299 51.6461C50.6363 51.6461 54.3705 47.9119 54.3705 43.3056C54.3719 42.1687 54.1401 41.0436 53.6894 39.9999C57.0427 41.0809 59.4675 44.2267 59.4675 47.9392C59.4675 52.5455 55.7333 56.2798 51.127 56.2798C47.6948 56.2798 44.7473 54.2072 43.4675 51.2449Z" fill="#BA91DE" stroke="#BA91DE" stroke-width="0.904437" stroke-linejoin="round"/>
<defs>
<filter id="filter0_d_517_196" x="0" y="0" width="298" height="95" filterUnits="userSpaceOnUse" color-interpolation-filters="sRGB">
<feFlood flood-opacity="0" result="BackgroundImageFix"/>
<feColorMatrix in="SourceAlpha" type="matrix" values="0 0 0 0 0 0 0 0 0 0 0 0 0 0 0 0 0 0 127 0" result="hardAlpha"/>
<feOffset/>
<feGaussianBlur stdDeviation="5"/>
<feComposite in2="hardAlpha" operator="out"/>
<feColorMatrix type="matrix" values="0 0 0 0 0.377661 0 0 0 0 0.471527 0 0 0 0 0.878281 0 0 0 0.25 0"/>
<feBlend mode="normal" in2="BackgroundImageFix" result="effect1_dropShadow_517_196"/>
<feBlend mode="normal" in="SourceGraphic" in2="effect1_dropShadow_517_196" result="shape"/>
</filter>
</defs>
</svg>
