<svg width="390" height="852" viewBox="0 0 390 852" fill="none" xmlns="http://www.w3.org/2000/svg">
<g clip-path="url(#clip0_504_122)">
<rect width="390" height="852" fill="white"/>
<path d="M32.395 26.408V24.92L36.891 17.672H38.539V25.16H40.171V26.408H38.539V29H37.195V26.408H32.395ZM37.163 19.24L33.547 25.16H37.195V19.24H37.163ZM43.5896 22.28C43.5896 22.792 43.1256 23.24 42.6296 23.24C42.1656 23.24 41.6696 22.808 41.6696 22.28C41.6696 21.752 42.1176 21.32 42.6296 21.32C43.1896 21.32 43.5896 21.784 43.5896 22.28ZM43.5896 28.136C43.5896 28.648 43.1416 29.096 42.6296 29.096C42.1336 29.096 41.6696 28.648 41.6696 28.136C41.6696 27.608 42.1016 27.176 42.6296 27.176C43.1576 27.176 43.5896 27.624 43.5896 28.136ZM49.0987 17.48C51.1147 17.48 52.5547 18.664 52.5547 20.552C52.5547 22.28 51.6907 23.16 50.3467 24.44L46.8587 27.72V27.752H52.6347V29H45.3387V27.464L49.6907 23.224C51.1627 21.8 51.2107 21.176 51.2107 20.552C51.2107 19.416 50.3147 18.632 49.1467 18.632C48.0107 18.632 47.2107 19.336 47.0027 20.44L45.5467 20.312C45.8507 18.504 47.2267 17.48 49.0987 17.48ZM57.5574 17.48C60.0694 17.48 61.3974 19.688 61.3974 23.336C61.3974 27 60.0694 29.192 57.5574 29.192C55.0454 29.192 53.7174 26.984 53.7174 23.336C53.7174 19.688 55.0454 17.48 57.5574 17.48ZM55.0614 23.336C55.0614 26.392 55.9414 28.04 57.5574 28.04C59.1734 28.04 60.0534 26.408 60.0534 23.336C60.0534 20.28 59.1894 18.632 57.5414 18.632C55.9734 18.632 55.0614 20.216 55.0614 23.336Z" fill="white"/>
<g filter="url(#filter0_b_504_122)">
<g clip-path="url(#clip1_504_122)">
<rect opacity="0.2" x="317.5" y="19" width="3.5" height="11.5" rx="1" fill="white"/>
<path d="M312.5 22.5C312.5 21.9477 312.948 21.5 313.5 21.5H315C315.552 21.5 316 21.9477 316 22.5V29.5C316 30.0523 315.552 30.5 315 30.5H313.5C312.948 30.5 312.5 30.0523 312.5 29.5V22.5Z" fill="white"/>
<path d="M307.5 25C307.5 24.4477 307.948 24 308.5 24H310C310.552 24 311 24.4477 311 25V29.5C311 30.0523 310.552 30.5 310 30.5H308.5C307.948 30.5 307.5 30.0523 307.5 29.5V25Z" fill="white"/>
<path d="M302.5 27C302.5 26.4477 302.948 26 303.5 26H305C305.552 26 306 26.4477 306 27V29.5C306 30.0523 305.552 30.5 305 30.5H303.5C302.948 30.5 302.5 30.0523 302.5 29.5V27Z" fill="white"/>
<path d="M336.325 28.2893C336.39 28.2257 336.426 28.1382 336.424 28.0475C336.422 27.9568 336.383 27.8709 336.316 27.81C334.979 26.6786 333.022 26.6786 331.686 27.81C331.618 27.8708 331.579 27.9567 331.577 28.0474C331.575 28.1382 331.611 28.2257 331.676 28.2893L333.768 30.4031C333.83 30.4653 333.913 30.5002 334.001 30.5002C334.088 30.5002 334.171 30.4653 334.233 30.4031L336.325 28.2893Z" fill="white"/>
<path d="M334 25.369C335.276 25.3689 336.506 25.8435 337.451 26.7005C337.579 26.8221 337.781 26.8195 337.905 26.6946L339.115 25.4711C339.179 25.4069 339.214 25.3198 339.213 25.2293C339.212 25.1389 339.175 25.0526 339.11 24.9897C336.231 22.3088 331.772 22.3088 328.893 24.9897C328.828 25.0526 328.791 25.1389 328.79 25.2294C328.789 25.3199 328.825 25.407 328.889 25.4711L330.098 26.6946C330.222 26.8195 330.424 26.8221 330.552 26.7005C331.497 25.844 332.726 25.3695 334 25.369Z" fill="white"/>
<path opacity="0.2" d="M334 21.3883C336.322 21.3884 338.555 22.2813 340.237 23.8825C340.364 24.0061 340.566 24.0045 340.691 23.879L341.902 22.6555C341.965 22.5918 342.001 22.5055 342 22.4158C341.999 22.326 341.963 22.2402 341.899 22.1772C337.483 17.9409 330.517 17.9409 326.101 22.1772C326.037 22.2401 326.001 22.326 326 22.4157C325.999 22.5055 326.035 22.5917 326.098 22.6555L327.309 23.879C327.434 24.0047 327.637 24.0063 327.763 23.8825C329.446 22.2812 331.679 21.3883 334 21.3883Z" fill="white"/>
<g clip-path="url(#clip2_504_122)">
<path d="M348 21.75C348 21.0596 348.56 20.5 349.25 20.5H350V29H349.25C348.56 29 348 28.4404 348 27.75V21.75Z" fill="white"/>
<path d="M350 20.5H352V29H350V20.5Z" fill="white"/>
<path d="M352 20.5H354V29H352V20.5Z" fill="white"/>
<path d="M354 20.5H356V29H354V20.5Z" fill="white"/>
<path d="M356 20.5H358V29H356V20.5Z" fill="white"/>
<path d="M358 20.5H360V29H358V20.5Z" fill="white"/>
<path d="M360 20.5H362V29H360V20.5Z" fill="white"/>
<path d="M364 21.75C364 21.0596 363.44 20.5 362.75 20.5H362V29H362.75C363.44 29 364 28.4404 364 27.75V21.75Z" fill="white"/>
</g>
<g opacity="0.5">
<path fill-rule="evenodd" clip-rule="evenodd" d="M346 21.5C346 19.8431 347.343 18.5 349 18.5H367C368.657 18.5 370 19.8431 370 21.5V28C370 29.6569 368.657 31 367 31H349C347.343 31 346 29.6569 346 28V21.5ZM349 19.5C347.895 19.5 347 20.3954 347 21.5V28C347 29.1046 347.895 30 349 30H367C368.105 30 369 29.1046 369 28V21.5C369 20.3954 368.105 19.5 367 19.5H349Z" fill="white"/>
<path d="M371 27.042C371.883 26.6562 372.5 25.7751 372.5 24.75C372.5 23.7248 371.883 22.8438 371 22.458V27.042Z" fill="white"/>
</g>
</g>
</g>
<path d="M41.656 143.042V120.642H51.352C53.3573 120.642 55.0853 120.973 56.536 121.634C57.9867 122.274 59.1067 123.202 59.896 124.418C60.6853 125.634 61.08 127.085 61.08 128.77C61.08 130.434 60.6853 131.874 59.896 133.09C59.1067 134.306 57.9867 135.245 56.536 135.906C55.0853 136.546 53.3573 136.866 51.352 136.866H44.536L46.84 134.53V143.042H41.656ZM46.84 135.106L44.536 132.642H51.064C52.664 132.642 53.8587 132.301 54.648 131.618C55.4373 130.936 55.832 129.986 55.832 128.77C55.832 127.533 55.4373 126.573 54.648 125.89C53.8587 125.208 52.664 124.866 51.064 124.866H44.536L46.84 122.402V135.106ZM64.3978 143.042V125.826H69.1658V130.69L68.4938 129.282C69.0058 128.066 69.8271 127.149 70.9578 126.53C72.0884 125.89 73.4644 125.57 75.0858 125.57V130.178C74.8724 130.157 74.6804 130.146 74.5098 130.146C74.3391 130.125 74.1578 130.114 73.9658 130.114C72.6004 130.114 71.4911 130.509 70.6378 131.298C69.8058 132.066 69.3898 133.272 69.3898 134.914V143.042H64.3978ZM86.121 143.298C84.2863 143.298 82.6543 142.914 81.225 142.146C79.817 141.378 78.697 140.333 77.865 139.01C77.0543 137.666 76.649 136.141 76.649 134.434C76.649 132.706 77.0543 131.181 77.865 129.858C78.697 128.514 79.817 127.469 81.225 126.722C82.6543 125.954 84.2863 125.57 86.121 125.57C87.9343 125.57 89.5557 125.954 90.985 126.722C92.4143 127.469 93.5343 128.504 94.345 129.826C95.1557 131.149 95.561 132.685 95.561 134.434C95.561 136.141 95.1557 137.666 94.345 139.01C93.5343 140.333 92.4143 141.378 90.985 142.146C89.5557 142.914 87.9343 143.298 86.121 143.298ZM86.121 139.202C86.953 139.202 87.6997 139.01 88.361 138.626C89.0223 138.242 89.545 137.698 89.929 136.994C90.313 136.269 90.505 135.416 90.505 134.434C90.505 133.432 90.313 132.578 89.929 131.874C89.545 131.17 89.0223 130.626 88.361 130.242C87.6997 129.858 86.953 129.666 86.121 129.666C85.289 129.666 84.5423 129.858 83.881 130.242C83.2197 130.626 82.6863 131.17 82.281 131.874C81.897 132.578 81.705 133.432 81.705 134.434C81.705 135.416 81.897 136.269 82.281 136.994C82.6863 137.698 83.2197 138.242 83.881 138.626C84.5423 139.01 85.289 139.202 86.121 139.202ZM99.5058 143.042V125.442C99.5058 123.501 100.082 121.954 101.234 120.802C102.386 119.629 104.028 119.042 106.162 119.042C106.887 119.042 107.58 119.117 108.242 119.266C108.924 119.416 109.5 119.65 109.97 119.97L108.658 123.586C108.38 123.394 108.071 123.245 107.73 123.138C107.388 123.032 107.026 122.978 106.642 122.978C105.916 122.978 105.351 123.192 104.946 123.618C104.562 124.024 104.37 124.642 104.37 125.474V127.074L104.498 129.218V143.042H99.5058ZM96.8498 130.05V126.21H108.786V130.05H96.8498ZM111.585 143.042V125.826H116.577V143.042H111.585ZM114.081 123.426C113.164 123.426 112.417 123.16 111.841 122.626C111.265 122.093 110.977 121.432 110.977 120.642C110.977 119.853 111.265 119.192 111.841 118.658C112.417 118.125 113.164 117.858 114.081 117.858C114.999 117.858 115.745 118.114 116.321 118.626C116.897 119.117 117.185 119.757 117.185 120.546C117.185 121.378 116.897 122.072 116.321 122.626C115.767 123.16 115.02 123.426 114.081 123.426ZM121.21 143.042V119.298H126.202V143.042H121.21ZM139.379 143.298C137.417 143.298 135.689 142.914 134.195 142.146C132.723 141.378 131.582 140.333 130.771 139.01C129.961 137.666 129.555 136.141 129.555 134.434C129.555 132.706 129.95 131.181 130.739 129.858C131.55 128.514 132.649 127.469 134.035 126.722C135.422 125.954 136.99 125.57 138.739 125.57C140.425 125.57 141.939 125.933 143.283 126.658C144.649 127.362 145.726 128.386 146.515 129.73C147.305 131.053 147.699 132.642 147.699 134.498C147.699 134.69 147.689 134.914 147.667 135.17C147.646 135.405 147.625 135.629 147.603 135.842H133.619V132.93H144.979L143.059 133.794C143.059 132.898 142.878 132.12 142.515 131.458C142.153 130.797 141.651 130.285 141.011 129.922C140.371 129.538 139.625 129.346 138.771 129.346C137.918 129.346 137.161 129.538 136.499 129.922C135.859 130.285 135.358 130.808 134.995 131.49C134.633 132.152 134.451 132.941 134.451 133.858V134.626C134.451 135.565 134.654 136.397 135.059 137.122C135.486 137.826 136.073 138.37 136.819 138.754C137.587 139.117 138.483 139.298 139.507 139.298C140.425 139.298 141.225 139.16 141.907 138.882C142.611 138.605 143.251 138.189 143.827 137.634L146.483 140.514C145.694 141.41 144.702 142.104 143.507 142.594C142.313 143.064 140.937 143.298 139.379 143.298Z" fill="#6078E0"/>
<path d="M32.395 26.408V24.92L36.891 17.672H38.539V25.16H40.171V26.408H38.539V29H37.195V26.408H32.395ZM37.163 19.24L33.547 25.16H37.195V19.24H37.163ZM43.5896 22.28C43.5896 22.792 43.1256 23.24 42.6296 23.24C42.1656 23.24 41.6696 22.808 41.6696 22.28C41.6696 21.752 42.1176 21.32 42.6296 21.32C43.1896 21.32 43.5896 21.784 43.5896 22.28ZM43.5896 28.136C43.5896 28.648 43.1416 29.096 42.6296 29.096C42.1336 29.096 41.6696 28.648 41.6696 28.136C41.6696 27.608 42.1016 27.176 42.6296 27.176C43.1576 27.176 43.5896 27.624 43.5896 28.136ZM49.0987 17.48C51.1147 17.48 52.5547 18.664 52.5547 20.552C52.5547 22.28 51.6907 23.16 50.3467 24.44L46.8587 27.72V27.752H52.6347V29H45.3387V27.464L49.6907 23.224C51.1627 21.8 51.2107 21.176 51.2107 20.552C51.2107 19.416 50.3147 18.632 49.1467 18.632C48.0107 18.632 47.2107 19.336 47.0027 20.44L45.5467 20.312C45.8507 18.504 47.2267 17.48 49.0987 17.48ZM57.5574 17.48C60.0694 17.48 61.3974 19.688 61.3974 23.336C61.3974 27 60.0694 29.192 57.5574 29.192C55.0454 29.192 53.7174 26.984 53.7174 23.336C53.7174 19.688 55.0454 17.48 57.5574 17.48ZM55.0614 23.336C55.0614 26.392 55.9414 28.04 57.5574 28.04C59.1734 28.04 60.0534 26.408 60.0534 23.336C60.0534 20.28 59.1894 18.632 57.5414 18.632C55.9734 18.632 55.0614 20.216 55.0614 23.336Z" fill="#3C3C43"/>
<g filter="url(#filter1_b_504_122)">
<g clip-path="url(#clip3_504_122)">
<rect opacity="0.2" x="317.5" y="19" width="3.5" height="11.5" rx="1" fill="#3C3C43"/>
<path d="M312.5 22.5C312.5 21.9477 312.948 21.5 313.5 21.5H315C315.552 21.5 316 21.9477 316 22.5V29.5C316 30.0523 315.552 30.5 315 30.5H313.5C312.948 30.5 312.5 30.0523 312.5 29.5V22.5Z" fill="#3C3C43"/>
<path d="M307.5 25C307.5 24.4477 307.948 24 308.5 24H310C310.552 24 311 24.4477 311 25V29.5C311 30.0523 310.552 30.5 310 30.5H308.5C307.948 30.5 307.5 30.0523 307.5 29.5V25Z" fill="#3C3C43"/>
<path d="M302.5 27C302.5 26.4477 302.948 26 303.5 26H305C305.552 26 306 26.4477 306 27V29.5C306 30.0523 305.552 30.5 305 30.5H303.5C302.948 30.5 302.5 30.0523 302.5 29.5V27Z" fill="#3C3C43"/>
<path d="M336.325 28.2893C336.39 28.2257 336.426 28.1382 336.424 28.0475C336.422 27.9568 336.383 27.8709 336.316 27.81C334.979 26.6786 333.022 26.6786 331.686 27.81C331.618 27.8708 331.579 27.9567 331.577 28.0474C331.575 28.1382 331.611 28.2257 331.676 28.2893L333.768 30.4031C333.83 30.4653 333.913 30.5002 334.001 30.5002C334.088 30.5002 334.171 30.4653 334.233 30.4031L336.325 28.2893Z" fill="#3C3C43"/>
<path d="M334 25.369C335.276 25.3689 336.506 25.8435 337.451 26.7005C337.579 26.8221 337.781 26.8195 337.905 26.6946L339.115 25.4711C339.179 25.4069 339.214 25.3198 339.213 25.2293C339.212 25.1389 339.175 25.0526 339.11 24.9897C336.231 22.3088 331.772 22.3088 328.893 24.9897C328.828 25.0526 328.791 25.1389 328.79 25.2294C328.789 25.3199 328.825 25.407 328.889 25.4711L330.098 26.6946C330.222 26.8195 330.424 26.8221 330.552 26.7005C331.497 25.844 332.726 25.3695 334 25.369Z" fill="#3C3C43"/>
<path opacity="0.2" d="M334 21.3883C336.322 21.3884 338.555 22.2813 340.237 23.8825C340.364 24.0061 340.566 24.0045 340.691 23.879L341.902 22.6555C341.965 22.5918 342.001 22.5055 342 22.4158C341.999 22.326 341.963 22.2402 341.899 22.1772C337.483 17.9409 330.517 17.9409 326.101 22.1772C326.037 22.2401 326.001 22.326 326 22.4157C325.999 22.5055 326.035 22.5917 326.098 22.6555L327.309 23.879C327.434 24.0047 327.637 24.0063 327.763 23.8825C329.446 22.2812 331.679 21.3883 334 21.3883Z" fill="#3C3C43"/>
<g clip-path="url(#clip4_504_122)">
<path d="M348 21.75C348 21.0596 348.56 20.5 349.25 20.5H350V29H349.25C348.56 29 348 28.4404 348 27.75V21.75Z" fill="#3C3C43"/>
<path d="M350 20.5H352V29H350V20.5Z" fill="#3C3C43"/>
<path d="M352 20.5H354V29H352V20.5Z" fill="#3C3C43"/>
<path d="M354 20.5H356V29H354V20.5Z" fill="#3C3C43"/>
<path d="M356 20.5H358V29H356V20.5Z" fill="#3C3C43"/>
<path d="M358 20.5H360V29H358V20.5Z" fill="#3C3C43"/>
<path d="M360 20.5H362V29H360V20.5Z" fill="#3C3C43"/>
<path d="M364 21.75C364 21.0596 363.44 20.5 362.75 20.5H362V29H362.75C363.44 29 364 28.4404 364 27.75V21.75Z" fill="#3C3C43"/>
</g>
<g opacity="0.5">
<path fill-rule="evenodd" clip-rule="evenodd" d="M346 21.5C346 19.8431 347.343 18.5 349 18.5H367C368.657 18.5 370 19.8431 370 21.5V28C370 29.6569 368.657 31 367 31H349C347.343 31 346 29.6569 346 28V21.5ZM349 19.5C347.895 19.5 347 20.3954 347 21.5V28C347 29.1046 347.895 30 349 30H367C368.105 30 369 29.1046 369 28V21.5C369 20.3954 368.105 19.5 367 19.5H349Z" fill="#3C3C43"/>
<path d="M371 27.042C371.883 26.6562 372.5 25.7751 372.5 24.75C372.5 23.7248 371.883 22.8438 371 22.458V27.042Z" fill="#3C3C43"/>
</g>
</g>
</g>
<path d="M136.5 843L252.5 843" stroke="black" stroke-width="4" stroke-linecap="round"/>
</g>
<defs>
<filter id="filter0_b_504_122" x="238" y="-56" width="208" height="156" filterUnits="userSpaceOnUse" color-interpolation-filters="sRGB">
<feFlood flood-opacity="0" result="BackgroundImageFix"/>
<feGaussianBlur in="BackgroundImageFix" stdDeviation="28"/>
<feComposite in2="SourceAlpha" operator="in" result="effect1_backgroundBlur_504_122"/>
<feBlend mode="normal" in="SourceGraphic" in2="effect1_backgroundBlur_504_122" result="shape"/>
</filter>
<filter id="filter1_b_504_122" x="238" y="-56" width="208" height="156" filterUnits="userSpaceOnUse" color-interpolation-filters="sRGB">
<feFlood flood-opacity="0" result="BackgroundImageFix"/>
<feGaussianBlur in="BackgroundImageFix" stdDeviation="28"/>
<feComposite in2="SourceAlpha" operator="in" result="effect1_backgroundBlur_504_122"/>
<feBlend mode="normal" in="SourceGraphic" in2="effect1_backgroundBlur_504_122" result="shape"/>
</filter>
<clipPath id="clip0_504_122">
<rect width="390" height="852" fill="white"/>
</clipPath>
<clipPath id="clip1_504_122">
<rect width="72" height="16" fill="white" transform="translate(302 16)"/>
</clipPath>
<clipPath id="clip2_504_122">
<rect width="16" height="8.5" fill="white" transform="translate(348 20.5)"/>
</clipPath>
<clipPath id="clip3_504_122">
<rect width="72" height="16" fill="white" transform="translate(302 16)"/>
</clipPath>
<clipPath id="clip4_504_122">
<rect width="16" height="8.5" fill="white" transform="translate(348 20.5)"/>
</clipPath>
</defs>
</svg>
