<svg width="298" height="95" viewBox="0 0 298 95" fill="none" xmlns="http://www.w3.org/2000/svg">
<g filter="url(#filter0_d_517_195)">
<rect x="10" y="10" width="278" height="75" rx="8" fill="white"/>
</g>
<rect x="85.1631" y="28" width="46" height="15" rx="2" fill="#FF8B58"/>
<path d="M91.1387 33.272V34.976H93.8427V35.856H91.1387V38H90.0987V32.4H94.1867V33.272H91.1387ZM99.3924 37.128V38H95.1924V32.4H99.2804V33.272H96.2324V34.728H98.9364V35.584H96.2324V37.128H99.3924ZM104.752 37.128V38H100.552V32.4H104.64V33.272H101.592V34.728H104.296V35.584H101.592V37.128H104.752ZM105.911 32.4H108.359C108.957 32.4 109.487 32.5173 109.951 32.752C110.415 32.9813 110.775 33.3093 111.031 33.736C111.287 34.1573 111.415 34.6453 111.415 35.2C111.415 35.7547 111.287 36.2453 111.031 36.672C110.775 37.0933 110.415 37.4213 109.951 37.656C109.487 37.8853 108.957 38 108.359 38H105.911V32.4ZM108.311 37.12C108.722 37.12 109.082 37.0427 109.391 36.888C109.706 36.728 109.946 36.504 110.111 36.216C110.282 35.9227 110.367 35.584 110.367 35.2C110.367 34.816 110.282 34.48 110.111 34.192C109.946 33.8987 109.706 33.6747 109.391 33.52C109.082 33.36 108.722 33.28 108.311 33.28H106.951V37.12H108.311ZM112.521 32.4H113.561V38H112.521V32.4ZM120.051 32.4V38H119.195L116.107 34.208V38H115.075V32.4H115.931L119.019 36.192V32.4H120.051ZM125.376 35.136H126.36V37.368C126.072 37.5973 125.736 37.7733 125.352 37.896C124.968 38.0187 124.573 38.08 124.168 38.08C123.597 38.08 123.082 37.9573 122.624 37.712C122.165 37.4613 121.805 37.1173 121.544 36.68C121.282 36.2427 121.152 35.7493 121.152 35.2C121.152 34.6507 121.282 34.1573 121.544 33.72C121.805 33.2827 122.165 32.9413 122.624 32.696C123.088 32.4453 123.608 32.32 124.184 32.32C124.653 32.32 125.08 32.3973 125.464 32.552C125.848 32.7067 126.17 32.9333 126.432 33.232L125.776 33.872C125.349 33.4453 124.834 33.232 124.232 33.232C123.837 33.232 123.485 33.3147 123.176 33.48C122.872 33.6453 122.632 33.8773 122.456 34.176C122.285 34.4747 122.2 34.816 122.2 35.2C122.2 35.5733 122.285 35.9093 122.456 36.208C122.632 36.5067 122.872 36.7413 123.176 36.912C123.485 37.0827 123.834 37.168 124.224 37.168C124.661 37.168 125.045 37.072 125.376 36.88V35.136Z" fill="white"/>
<path d="M141.135 40.072C140.487 40.072 139.907 39.9 139.395 39.556C138.891 39.212 138.495 38.72 138.207 38.08C137.927 37.432 137.787 36.672 137.787 35.8C137.787 34.928 137.927 34.172 138.207 33.532C138.495 32.884 138.891 32.388 139.395 32.044C139.907 31.7 140.487 31.528 141.135 31.528C141.783 31.528 142.359 31.7 142.863 32.044C143.375 32.388 143.775 32.884 144.063 33.532C144.351 34.172 144.495 34.928 144.495 35.8C144.495 36.672 144.351 37.432 144.063 38.08C143.775 38.72 143.375 39.212 142.863 39.556C142.359 39.9 141.783 40.072 141.135 40.072ZM141.135 39.28C141.623 39.28 142.051 39.144 142.419 38.872C142.795 38.6 143.087 38.204 143.295 37.684C143.503 37.164 143.607 36.536 143.607 35.8C143.607 35.064 143.503 34.436 143.295 33.916C143.087 33.396 142.795 33 142.419 32.728C142.051 32.456 141.623 32.32 141.135 32.32C140.647 32.32 140.215 32.456 139.839 32.728C139.471 33 139.183 33.396 138.975 33.916C138.767 34.436 138.663 35.064 138.663 35.8C138.663 36.536 138.767 37.164 138.975 37.684C139.183 38.204 139.471 38.6 139.839 38.872C140.215 39.144 140.647 39.28 141.135 39.28ZM152.872 37.792H151.192V40H150.328V37.792H145.588V37.168L150.04 31.6H151L146.704 37.024H150.352V35.08H151.192V37.024H152.872V37.792ZM154.384 34.948C154.208 34.948 154.056 34.884 153.928 34.756C153.808 34.628 153.748 34.472 153.748 34.288C153.748 34.104 153.808 33.952 153.928 33.832C154.056 33.704 154.208 33.64 154.384 33.64C154.56 33.64 154.712 33.704 154.84 33.832C154.968 33.952 155.032 34.104 155.032 34.288C155.032 34.472 154.968 34.628 154.84 34.756C154.712 34.884 154.56 34.948 154.384 34.948ZM154.384 40.06C154.208 40.06 154.056 39.996 153.928 39.868C153.808 39.74 153.748 39.584 153.748 39.4C153.748 39.216 153.808 39.064 153.928 38.944C154.056 38.816 154.208 38.752 154.384 38.752C154.56 38.752 154.712 38.816 154.84 38.944C154.968 39.064 155.032 39.216 155.032 39.4C155.032 39.584 154.968 39.74 154.84 39.868C154.712 39.996 154.56 40.06 154.384 40.06ZM163.419 37.792H161.739V40H160.875V37.792H156.135V37.168L160.587 31.6H161.547L157.251 37.024H160.899V35.08H161.739V37.024H163.419V37.792ZM166.374 35.044C167.59 35.044 168.474 35.264 169.026 35.704C169.586 36.136 169.866 36.744 169.866 37.528C169.866 38.016 169.75 38.452 169.518 38.836C169.294 39.22 168.954 39.524 168.498 39.748C168.042 39.964 167.482 40.072 166.818 40.072C166.218 40.072 165.646 39.976 165.102 39.784C164.566 39.584 164.134 39.32 163.806 38.992L164.226 38.308C164.506 38.596 164.874 38.832 165.33 39.016C165.786 39.192 166.278 39.28 166.806 39.28C167.502 39.28 168.038 39.124 168.414 38.812C168.798 38.5 168.99 38.084 168.99 37.564C168.99 36.988 168.774 36.552 168.342 36.256C167.918 35.96 167.198 35.812 166.182 35.812H164.394L164.826 31.6H169.422V32.368H165.582L165.294 35.044H166.374ZM177.991 31.6C179.063 31.6 179.903 31.856 180.511 32.368C181.119 32.88 181.423 33.584 181.423 34.48C181.423 35.376 181.119 36.08 180.511 36.592C179.903 37.096 179.063 37.348 177.991 37.348H175.735V40H174.847V31.6H177.991ZM177.967 36.568C178.799 36.568 179.435 36.388 179.875 36.028C180.315 35.66 180.535 35.144 180.535 34.48C180.535 33.8 180.315 33.28 179.875 32.92C179.435 32.552 178.799 32.368 177.967 32.368H175.735V36.568H177.967ZM192.068 31.6V40H191.216V33.28L187.916 38.932H187.496L184.196 33.316V40H183.344V31.6H184.076L187.724 37.828L191.336 31.6H192.068Z" fill="#3C3C43"/>
<circle cx="51.6221" cy="48" r="19.5" stroke="#FF8B58"/>
<circle cx="51.6221" cy="48" r="17" stroke="#FF8B58" stroke-dasharray="2 2"/>
<path d="M50.6136 43.277L45.4384 48.3535C45.275 48.5138 45.1455 48.7042 45.0571 48.9138C44.9687 49.1233 44.9232 49.348 44.9232 49.5748C44.9232 49.8017 44.9687 50.0263 45.0571 50.2359C45.1455 50.4454 45.275 50.6358 45.4384 50.7961L48.7885 54.0759C48.9517 54.2364 49.1455 54.3637 49.3587 54.4505C49.572 54.5374 49.8006 54.5821 50.0315 54.5821C50.2623 54.5821 50.4909 54.5374 50.7042 54.4505C50.9175 54.3637 51.1112 54.2364 51.2744 54.0759L55.2395 50.21C55.2928 50.1573 55.3266 50.0886 55.3355 50.0147C55.3444 49.9409 55.3279 49.8663 55.2885 49.8029L51.6821 43.4055C51.4532 43.0359 50.9298 42.9716 50.6136 43.277ZM52.147 45.9556C52.3105 46.1163 52.3105 46.368 52.147 46.5234C51.9889 46.6787 51.7272 46.6787 51.5691 46.5234L50.6042 45.5752C50.4461 45.4199 50.4461 45.1628 50.6042 45.0074C50.6812 44.9327 50.785 44.8908 50.8931 44.8908C51.0013 44.8908 51.1051 44.9327 51.1821 45.0074L52.147 45.9556ZM50.3207 47.7554C50.4788 47.9161 50.4788 48.1679 50.3207 48.3232C50.1626 48.4785 49.901 48.4785 49.7429 48.3232L48.778 47.3751C48.6199 47.2197 48.6199 46.9626 48.778 46.8073C48.8549 46.7325 48.9587 46.6906 49.0669 46.6906C49.1751 46.6906 49.2789 46.7325 49.3558 46.8073L50.3207 47.7554ZM53.0138 43.2076L53.9787 44.1557C54.1422 44.3164 54.1422 44.5682 53.9787 44.7235C53.8206 44.8789 53.5589 44.8789 53.4008 44.7235L52.4359 43.7754C52.2778 43.62 52.2778 43.3629 52.4359 43.2076C52.5129 43.1329 52.6167 43.091 52.7248 43.091C52.833 43.091 52.9368 43.1329 53.0138 43.2076Z" fill="#FF8B58"/>
<path d="M60.0679 41.2847L60.4386 40.9204C60.6533 40.7095 60.7739 40.4233 60.7739 40.125C60.7739 39.8266 60.6533 39.5405 60.4386 39.3295C60.2239 39.1185 59.9327 39 59.6291 39C59.3254 39 59.0342 39.1185 58.8195 39.3295L58.4488 39.6937C58.3071 39.833 58.0945 39.8866 57.8982 39.8223L57.0205 39.533C56.6335 39.4045 56.2082 39.5063 55.9248 39.7902L55.5813 40.1223L55.5541 40.0955C55.4531 39.9977 55.317 39.9429 55.1752 39.9429C55.0334 39.9429 54.8973 39.9977 54.7963 40.0955L54.738 40.1528C54.1997 39.7229 53.5197 39.5016 52.8267 39.5307C52.1336 39.5598 51.4754 39.8373 50.9764 40.3108L50.9737 40.3135L43.6899 47.5092C43.3995 47.7941 43.1692 48.1325 43.012 48.5049C42.8548 48.8773 42.7739 49.2766 42.7739 49.6798C42.7739 50.083 42.8548 50.4822 43.012 50.8546C43.1692 51.2271 43.3995 51.5654 43.6899 51.8503L47.7404 55.8303C48.0303 56.1156 48.3746 56.342 48.7536 56.4964C49.1327 56.6508 49.539 56.7303 49.9493 56.7303C50.3596 56.7303 50.7659 56.6508 51.145 56.4964C51.524 56.342 51.8683 56.1156 52.1583 55.8303L59.4584 48.619L59.471 48.5949C59.9405 48.1018 60.212 47.4581 60.2351 46.7831C60.2582 46.1082 60.0312 45.448 59.5963 44.9251L59.6536 44.8683C59.8662 44.6647 59.8662 44.3326 59.659 44.1291L59.6318 44.1023L59.9698 43.7648C60.2587 43.4863 60.3623 43.0685 60.2314 42.6881L59.9371 41.8257C59.8716 41.6329 59.9262 41.424 60.0679 41.2847ZM58.6358 45.4774C58.9583 45.7951 59.1414 46.2242 59.1459 46.673C59.1504 47.1217 58.9759 47.5543 58.6598 47.8782L58.4761 48.0587L58.4761 48.0695L51.3874 55.0729C51.1987 55.2587 50.9746 55.4062 50.7278 55.5068C50.481 55.6074 50.2165 55.6592 49.9493 55.6592C49.6821 55.6592 49.4176 55.6074 49.1708 55.5068C48.924 55.4062 48.6999 55.2587 48.5112 55.0729L44.4607 51.0929C44.2716 50.9075 44.1215 50.6872 44.0191 50.4447C43.9167 50.2022 43.864 49.9423 43.864 49.6798C43.864 49.4172 43.9167 49.1573 44.0191 48.9148C44.1215 48.6723 44.2716 48.4521 44.4607 48.2667L51.7385 41.0774C52.0681 40.7667 52.5084 40.5953 52.9651 40.5997C53.4218 40.6041 53.8586 40.784 54.1819 41.1009L58.6358 45.4774Z" fill="#FF8B58"/>
<defs>
<filter id="filter0_d_517_195" x="0" y="0" width="298" height="95" filterUnits="userSpaceOnUse" color-interpolation-filters="sRGB">
<feFlood flood-opacity="0" result="BackgroundImageFix"/>
<feColorMatrix in="SourceAlpha" type="matrix" values="0 0 0 0 0 0 0 0 0 0 0 0 0 0 0 0 0 0 127 0" result="hardAlpha"/>
<feOffset/>
<feGaussianBlur stdDeviation="5"/>
<feComposite in2="hardAlpha" operator="out"/>
<feColorMatrix type="matrix" values="0 0 0 0 0.377661 0 0 0 0 0.471527 0 0 0 0 0.878281 0 0 0 0.25 0"/>
<feBlend mode="normal" in2="BackgroundImageFix" result="effect1_dropShadow_517_195"/>
<feBlend mode="normal" in="SourceGraphic" in2="effect1_dropShadow_517_195" result="shape"/>
</filter>
</defs>
</svg>
