<svg width="331" height="96" viewBox="0 0 331 96" fill="none" xmlns="http://www.w3.org/2000/svg">
<g filter="url(#filter0_d_468_55)">
<rect x="43" y="11" width="278" height="75" rx="8" fill="white"/>
</g>
<rect x="118.163" y="29" width="46" height="15" rx="2" fill="#FF8B58"/>
<path d="M124.139 34.272V35.976H126.843V36.856H124.139V39H123.099V33.4H127.187V34.272H124.139ZM132.392 38.128V39H128.192V33.4H132.28V34.272H129.232V35.728H131.936V36.584H129.232V38.128H132.392ZM137.752 38.128V39H133.552V33.4H137.64V34.272H134.592V35.728H137.296V36.584H134.592V38.128H137.752ZM138.911 33.4H141.359C141.957 33.4 142.487 33.5173 142.951 33.752C143.415 33.9813 143.775 34.3093 144.031 34.736C144.287 35.1573 144.415 35.6453 144.415 36.2C144.415 36.7547 144.287 37.2453 144.031 37.672C143.775 38.0933 143.415 38.4213 142.951 38.656C142.487 38.8853 141.957 39 141.359 39H138.911V33.4ZM141.311 38.12C141.722 38.12 142.082 38.0427 142.391 37.888C142.706 37.728 142.946 37.504 143.111 37.216C143.282 36.9227 143.367 36.584 143.367 36.2C143.367 35.816 143.282 35.48 143.111 35.192C142.946 34.8987 142.706 34.6747 142.391 34.52C142.082 34.36 141.722 34.28 141.311 34.28H139.951V38.12H141.311ZM145.521 33.4H146.561V39H145.521V33.4ZM153.051 33.4V39H152.195L149.107 35.208V39H148.075V33.4H148.931L152.019 37.192V33.4H153.051ZM158.376 36.136H159.36V38.368C159.072 38.5973 158.736 38.7733 158.352 38.896C157.968 39.0187 157.573 39.08 157.168 39.08C156.597 39.08 156.082 38.9573 155.624 38.712C155.165 38.4613 154.805 38.1173 154.544 37.68C154.282 37.2427 154.152 36.7493 154.152 36.2C154.152 35.6507 154.282 35.1573 154.544 34.72C154.805 34.2827 155.165 33.9413 155.624 33.696C156.088 33.4453 156.608 33.32 157.184 33.32C157.653 33.32 158.08 33.3973 158.464 33.552C158.848 33.7067 159.17 33.9333 159.432 34.232L158.776 34.872C158.349 34.4453 157.834 34.232 157.232 34.232C156.837 34.232 156.485 34.3147 156.176 34.48C155.872 34.6453 155.632 34.8773 155.456 35.176C155.285 35.4747 155.2 35.816 155.2 36.2C155.2 36.5733 155.285 36.9093 155.456 37.208C155.632 37.5067 155.872 37.7413 156.176 37.912C156.485 38.0827 156.834 38.168 157.224 38.168C157.661 38.168 158.045 38.072 158.376 37.88V36.136Z" fill="white"/>
<path d="M174.135 41.072C173.487 41.072 172.911 40.904 172.407 40.568C171.903 40.224 171.507 39.736 171.219 39.104C170.931 38.464 170.787 37.696 170.787 36.8C170.787 35.904 170.931 35.14 171.219 34.508C171.507 33.868 171.903 33.38 172.407 33.044C172.911 32.7 173.487 32.528 174.135 32.528C174.783 32.528 175.359 32.7 175.863 33.044C176.367 33.38 176.763 33.868 177.051 34.508C177.347 35.14 177.495 35.904 177.495 36.8C177.495 37.696 177.347 38.464 177.051 39.104C176.763 39.736 176.367 40.224 175.863 40.568C175.359 40.904 174.783 41.072 174.135 41.072ZM174.135 40.28C174.631 40.28 175.063 40.148 175.431 39.884C175.799 39.612 176.087 39.22 176.295 38.708C176.503 38.188 176.607 37.552 176.607 36.8C176.607 36.048 176.503 35.416 176.295 34.904C176.087 34.384 175.799 33.992 175.431 33.728C175.063 33.456 174.631 33.32 174.135 33.32C173.655 33.32 173.227 33.456 172.851 33.728C172.475 33.992 172.183 34.384 171.975 34.904C171.767 35.416 171.663 36.048 171.663 36.8C171.663 37.552 171.767 38.188 171.975 38.708C172.183 39.22 172.475 39.612 172.851 39.884C173.227 40.148 173.655 40.28 174.135 40.28ZM178.588 38.792V38.168L183.04 32.6H184L179.584 38.168L179.116 38.024H185.872V38.792H178.588ZM183.328 41V38.792L183.352 38.024V36.08H184.192V41H183.328ZM187.384 35.948C187.208 35.948 187.056 35.884 186.928 35.756C186.808 35.628 186.748 35.472 186.748 35.288C186.748 35.096 186.808 34.94 186.928 34.82C187.056 34.7 187.208 34.64 187.384 34.64C187.56 34.64 187.708 34.7 187.828 34.82C187.956 34.94 188.02 35.096 188.02 35.288C188.02 35.472 187.956 35.628 187.828 35.756C187.708 35.884 187.56 35.948 187.384 35.948ZM187.384 41.06C187.208 41.06 187.056 40.996 186.928 40.868C186.808 40.74 186.748 40.584 186.748 40.4C186.748 40.208 186.808 40.052 186.928 39.932C187.056 39.812 187.208 39.752 187.384 39.752C187.56 39.752 187.708 39.812 187.828 39.932C187.956 40.052 188.02 40.208 188.02 40.4C188.02 40.584 187.956 40.74 187.828 40.868C187.708 40.996 187.56 41.06 187.384 41.06ZM189.135 38.792V38.168L193.587 32.6H194.547L190.131 38.168L189.663 38.024H196.419V38.792H189.135ZM193.875 41V38.792L193.899 38.024V36.08H194.739V41H193.875ZM199.841 41.072C199.241 41.072 198.669 40.976 198.125 40.784C197.581 40.584 197.149 40.32 196.829 39.992L197.249 39.308C197.513 39.588 197.873 39.82 198.329 40.004C198.793 40.188 199.293 40.28 199.829 40.28C200.541 40.28 201.081 40.124 201.449 39.812C201.825 39.492 202.013 39.076 202.013 38.564C202.013 38.204 201.925 37.896 201.749 37.64C201.581 37.376 201.293 37.172 200.885 37.028C200.477 36.884 199.917 36.812 199.205 36.812H197.417L197.849 32.6H202.445V33.368H198.197L198.641 32.948L198.269 36.476L197.825 36.044H199.397C200.245 36.044 200.925 36.148 201.437 36.356C201.949 36.564 202.317 36.856 202.541 37.232C202.773 37.6 202.889 38.032 202.889 38.528C202.889 39 202.777 39.432 202.553 39.824C202.329 40.208 201.993 40.512 201.545 40.736C201.097 40.96 200.529 41.072 199.841 41.072ZM207.871 41V32.6H211.015C211.727 32.6 212.339 32.716 212.851 32.948C213.363 33.172 213.755 33.5 214.027 33.932C214.307 34.356 214.447 34.872 214.447 35.48C214.447 36.072 214.307 36.584 214.027 37.016C213.755 37.44 213.363 37.768 212.851 38C212.339 38.232 211.727 38.348 211.015 38.348H208.363L208.759 37.928V41H207.871ZM208.759 38L208.363 37.568H210.991C211.831 37.568 212.467 37.388 212.899 37.028C213.339 36.66 213.559 36.144 213.559 35.48C213.559 34.808 213.339 34.288 212.899 33.92C212.467 33.552 211.831 33.368 210.991 33.368H208.363L208.759 32.948V38ZM216.367 41V32.6H217.099L220.939 39.152H220.555L224.359 32.6H225.091V41H224.239V33.932H224.443L220.939 39.932H220.519L216.991 33.932H217.219V41H216.367Z" fill="#3C3C43"/>
<circle cx="84.6223" cy="49" r="19.5" stroke="#FF8B58"/>
<circle cx="84.6223" cy="49" r="17" stroke="#FF8B58" stroke-dasharray="2 2"/>
<path d="M83.6139 44.277L78.4386 49.3535C78.2753 49.5138 78.1457 49.7042 78.0573 49.9138C77.9689 50.1233 77.9234 50.348 77.9234 50.5748C77.9234 50.8017 77.9689 51.0263 78.0573 51.2359C78.1457 51.4454 78.2753 51.6358 78.4386 51.7961L81.7888 55.0759C81.9519 55.2364 82.1457 55.3637 82.359 55.4505C82.5722 55.5374 82.8008 55.5821 83.0317 55.5821C83.2626 55.5821 83.4912 55.5374 83.7044 55.4505C83.9177 55.3637 84.1115 55.2364 84.2746 55.0759L88.2397 51.21C88.2931 51.1573 88.3269 51.0886 88.3358 51.0147C88.3447 50.9409 88.3281 50.8663 88.2888 50.8029L84.6824 44.4055C84.4534 44.0359 83.9301 43.9716 83.6139 44.277ZM85.1472 46.9556C85.3108 47.1163 85.3108 47.368 85.1472 47.5234C84.9891 47.6787 84.7275 47.6787 84.5694 47.5234L83.6045 46.5752C83.4464 46.4199 83.4464 46.1628 83.6045 46.0074C83.6814 45.9327 83.7852 45.8908 83.8934 45.8908C84.0016 45.8908 84.1054 45.9327 84.1823 46.0074L85.1472 46.9556ZM83.321 48.7554C83.4791 48.9161 83.4791 49.1679 83.321 49.3232C83.1629 49.4785 82.9012 49.4785 82.7431 49.3232L81.7782 48.3751C81.6201 48.2197 81.6201 47.9626 81.7782 47.8073C81.8551 47.7325 81.959 47.6906 82.0671 47.6906C82.1753 47.6906 82.2791 47.7325 82.3561 47.8073L83.321 48.7554ZM86.014 44.2076L86.9789 45.1557C87.1425 45.3164 87.1425 45.5682 86.9789 45.7235C86.8208 45.8789 86.5592 45.8789 86.4011 45.7235L85.4362 44.7754C85.2781 44.62 85.2781 44.3629 85.4362 44.2076C85.5131 44.1329 85.6169 44.091 85.7251 44.091C85.8333 44.091 85.9371 44.1329 86.014 44.2076Z" fill="#FF8B58"/>
<path d="M93.0684 42.2847L93.4391 41.9204C93.6538 41.7095 93.7744 41.4233 93.7744 41.125C93.7744 40.8266 93.6538 40.5405 93.4391 40.3295C93.2244 40.1185 92.9332 40 92.6295 40C92.3259 40 92.0347 40.1185 91.82 40.3295L91.4493 40.6937C91.3076 40.833 91.0949 40.8866 90.8987 40.8223L90.021 40.533C89.6339 40.4045 89.2087 40.5063 88.9252 40.7902L88.5818 41.1223L88.5545 41.0955C88.4536 40.9977 88.3175 40.9429 88.1757 40.9429C88.0339 40.9429 87.8978 40.9977 87.7968 41.0955L87.7385 41.1528C87.2001 40.7229 86.5202 40.5016 85.8272 40.5307C85.1341 40.5598 84.4759 40.8373 83.9769 41.3108L83.9742 41.3135L76.6904 48.5092C76.4 48.7941 76.1697 49.1325 76.0125 49.5049C75.8553 49.8773 75.7744 50.2766 75.7744 50.6798C75.7744 51.083 75.8553 51.4822 76.0125 51.8546C76.1697 52.2271 76.4 52.5654 76.6904 52.8503L80.7409 56.8303C81.0308 57.1156 81.3751 57.342 81.7541 57.4964C82.1332 57.6508 82.5395 57.7303 82.9498 57.7303C83.3601 57.7303 83.7664 57.6508 84.1455 57.4964C84.5245 57.342 84.8688 57.1156 85.1588 56.8303L92.4589 49.619L92.4714 49.5949C92.941 49.1018 93.2125 48.4581 93.2356 47.7831C93.2586 47.1082 93.0317 46.448 92.5968 45.9251L92.6541 45.8683C92.8667 45.6647 92.8667 45.3326 92.6595 45.1291L92.6323 45.1023L92.9703 44.7648C93.2592 44.4863 93.3628 44.0685 93.2319 43.6881L92.9375 42.8257C92.8721 42.6329 92.9266 42.424 93.0684 42.2847ZM91.6363 46.4774C91.9588 46.7951 92.1419 47.2242 92.1464 47.673C92.1509 48.1217 91.9764 48.5543 91.6603 48.8782L91.4765 49.0587L91.4765 49.0695L84.3879 56.0729C84.1992 56.2587 83.9751 56.4062 83.7283 56.5068C83.4815 56.6074 83.217 56.6592 82.9498 56.6592C82.6826 56.6592 82.4181 56.6074 82.1713 56.5068C81.9245 56.4062 81.7004 56.2587 81.5117 56.0729L77.4612 52.0929C77.2721 51.9075 77.122 51.6872 77.0196 51.4447C76.9172 51.2022 76.8645 50.9423 76.8645 50.6798C76.8645 50.4172 76.9172 50.1573 77.0196 49.9148C77.122 49.6723 77.2721 49.4521 77.4612 49.2667L84.739 42.0774C85.0686 41.7667 85.5089 41.5953 85.9656 41.5997C86.4223 41.6041 86.8591 41.784 87.1824 42.1009L91.6363 46.4774Z" fill="#FF8B58"/>
<g filter="url(#filter1_d_468_55)">
<circle cx="19.5" cy="19.5" r="10.5" fill="url(#paint0_radial_468_55)"/>
</g>
<g filter="url(#filter2_d_468_55)">
<line x1="30" y1="19.25" x2="321" y2="19.25" stroke="#6078E0" stroke-width="1.5"/>
</g>
<circle cx="19.5" cy="19.5" r="7.5" fill="#6078E0"/>
<defs>
<filter id="filter0_d_468_55" x="33" y="1" width="298" height="95" filterUnits="userSpaceOnUse" color-interpolation-filters="sRGB">
<feFlood flood-opacity="0" result="BackgroundImageFix"/>
<feColorMatrix in="SourceAlpha" type="matrix" values="0 0 0 0 0 0 0 0 0 0 0 0 0 0 0 0 0 0 127 0" result="hardAlpha"/>
<feOffset/>
<feGaussianBlur stdDeviation="5"/>
<feComposite in2="hardAlpha" operator="out"/>
<feColorMatrix type="matrix" values="0 0 0 0 0.377661 0 0 0 0 0.471527 0 0 0 0 0.878281 0 0 0 0.25 0"/>
<feBlend mode="normal" in2="BackgroundImageFix" result="effect1_dropShadow_468_55"/>
<feBlend mode="normal" in="SourceGraphic" in2="effect1_dropShadow_468_55" result="shape"/>
</filter>
<filter id="filter1_d_468_55" x="0" y="0" width="39" height="39" filterUnits="userSpaceOnUse" color-interpolation-filters="sRGB">
<feFlood flood-opacity="0" result="BackgroundImageFix"/>
<feColorMatrix in="SourceAlpha" type="matrix" values="0 0 0 0 0 0 0 0 0 0 0 0 0 0 0 0 0 0 127 0" result="hardAlpha"/>
<feMorphology radius="2" operator="dilate" in="SourceAlpha" result="effect1_dropShadow_468_55"/>
<feOffset/>
<feGaussianBlur stdDeviation="3.5"/>
<feComposite in2="hardAlpha" operator="out"/>
<feColorMatrix type="matrix" values="0 0 0 0 0.377661 0 0 0 0 0.471527 0 0 0 0 0.878281 0 0 0 0.5 0"/>
<feBlend mode="normal" in2="BackgroundImageFix" result="effect1_dropShadow_468_55"/>
<feBlend mode="normal" in="SourceGraphic" in2="effect1_dropShadow_468_55" result="shape"/>
</filter>
<filter id="filter2_d_468_55" x="23" y="11.5" width="305" height="15.5" filterUnits="userSpaceOnUse" color-interpolation-filters="sRGB">
<feFlood flood-opacity="0" result="BackgroundImageFix"/>
<feColorMatrix in="SourceAlpha" type="matrix" values="0 0 0 0 0 0 0 0 0 0 0 0 0 0 0 0 0 0 127 0" result="hardAlpha"/>
<feOffset/>
<feGaussianBlur stdDeviation="3.5"/>
<feComposite in2="hardAlpha" operator="out"/>
<feColorMatrix type="matrix" values="0 0 0 0 0.377661 0 0 0 0 0.471527 0 0 0 0 0.878281 0 0 0 0.5 0"/>
<feBlend mode="normal" in2="BackgroundImageFix" result="effect1_dropShadow_468_55"/>
<feBlend mode="normal" in="SourceGraphic" in2="effect1_dropShadow_468_55" result="shape"/>
</filter>
<radialGradient id="paint0_radial_468_55" cx="0" cy="0" r="1" gradientUnits="userSpaceOnUse" gradientTransform="translate(19.5 19.5) rotate(90) scale(10.5)">
<stop stop-color="#6078E0"/>
<stop offset="1" stop-color="#BDC9FF"/>
</radialGradient>
</defs>
</svg>
