<svg width="24" height="24" viewBox="0 0 24 24" fill="none" xmlns="http://www.w3.org/2000/svg">
<path d="M21.8741 14.4414L21.8169 13.8733L21.7998 13.8745L21.7804 13.8779L21.8741 14.4414ZM21.8741 14.4414L21.9312 15.0106L21.9507 15.0083L21.9689 15.0049L21.8741 14.4414ZM17.2565 20.7071L17.6188 20.2648L17.6131 20.2614L17.2565 20.7071ZM17.2565 20.7071L16.8942 21.1494L16.8999 21.154L17.2565 20.7071ZM6.74578 20.7071L6.38346 20.2659L6.37546 20.2728L6.36632 20.2808L6.74578 20.7071ZM6.74578 20.7071L7.1081 21.1506L7.11725 21.1426L7.12525 21.1357L6.74578 20.7071ZM2.12706 9.55862V8.98714H2.09963L2.07105 8.98943L2.12706 9.55862ZM2.12706 9.55862V10.1301H2.15563L2.18421 10.1267L2.12706 9.55862ZM15.0094 2.06877C14.9923 1.86153 14.9683 1.65492 14.9374 1.44928C14.9113 1.26732 14.8565 1.09064 14.7751 0.925802L13.759 1.45042C13.7705 1.47328 13.7899 1.519 13.8093 1.63787C13.831 1.7636 13.847 1.92704 13.8733 2.18192L15.0094 2.06877ZM15.2334 3.44376C15.2197 3.42661 15.1786 3.35689 15.134 3.1123C15.0808 2.76598 15.0408 2.41793 15.0117 2.06877L13.8733 2.18192C13.8736 2.18452 13.8738 2.18712 13.8741 2.18972C13.9195 2.64456 13.9571 3.02139 14.0093 3.3146C14.0608 3.60263 14.1408 3.89637 14.3248 4.13754L15.2334 3.44376ZM15.7638 3.66321C15.6639 3.67665 15.5622 3.66343 15.4691 3.62489C15.3759 3.58635 15.2946 3.52386 15.2334 3.44376L14.3236 4.13639C14.5072 4.37708 14.7512 4.56489 15.0308 4.68073C15.3105 4.79656 15.6158 4.83629 15.9158 4.79589L15.7638 3.66321ZM16.893 2.84827C16.5216 3.15344 16.2678 3.36032 16.0678 3.49862C15.8632 3.64035 15.7844 3.65978 15.7638 3.66321L15.9158 4.79589C16.2153 4.75588 16.4793 4.60501 16.7204 4.43699C16.9662 4.26555 17.2599 4.02553 17.6177 3.73293L16.893 2.84827ZM17.8668 2.20707C17.684 2.26536 17.5297 2.35794 17.3834 2.46195C17.2416 2.56253 17.0805 2.69511 16.893 2.84827L17.6177 3.73293C17.8154 3.57063 17.9434 3.46662 18.0463 3.39347C18.0974 3.35231 18.1544 3.31917 18.2154 3.29517L17.8668 2.20707ZM19.0704 2.2665C18.6896 2.10171 18.262 2.0806 17.8668 2.20707L18.2154 3.29517C18.3469 3.25354 18.489 3.26085 18.6155 3.31574L19.0704 2.2665ZM19.9756 3.00257C19.8042 2.83113 19.6567 2.68254 19.5264 2.56824C19.3913 2.44428 19.2373 2.34245 19.0704 2.2665L18.6155 3.31574C18.6395 3.32603 18.6829 3.35003 18.7744 3.43004C18.8692 3.51233 18.9858 3.62892 19.1675 3.81065L19.9756 3.00257ZM20.9963 4.02324L19.9756 3.00257L19.1675 3.81065L20.1882 4.83132L20.9963 4.02324ZM21.7324 4.92847C21.656 4.76147 21.5538 4.60756 21.4295 4.47243C21.3152 4.34213 21.1666 4.19468 20.9963 4.02324L20.1882 4.83132C20.3699 5.01305 20.4854 5.12963 20.57 5.2245C20.65 5.31593 20.6728 5.35937 20.6831 5.38337L21.7324 4.92847ZM21.7918 6.13201C21.9183 5.73686 21.8971 5.30924 21.7324 4.92847L20.6831 5.38337C20.7376 5.51001 20.7445 5.65208 20.7025 5.78341L21.7918 6.13201ZM21.1506 7.10582C21.3037 6.91837 21.4363 6.75721 21.5369 6.61549C21.6398 6.46919 21.7335 6.31489 21.7918 6.13201L20.7025 5.78341C20.6789 5.84439 20.6462 5.90142 20.6054 5.95257C20.4965 6.09877 20.3833 6.24171 20.2659 6.38118L21.1506 7.10582ZM20.3356 8.23507C20.3391 8.2145 20.3585 8.13563 20.5002 7.93104C20.6385 7.73102 20.8454 7.47728 21.1506 7.10582L20.2659 6.38118C20.2576 6.39132 20.2494 6.40141 20.2412 6.41145C19.9597 6.75554 19.7273 7.03964 19.5619 7.27841C19.3938 7.51843 19.243 7.7836 19.203 8.08305L20.3356 8.23507ZM20.5551 8.76541C20.475 8.70421 20.4125 8.62292 20.374 8.52978C20.3354 8.43664 20.3222 8.33497 20.3356 8.23507L19.203 8.08305C19.1628 8.38285 19.2026 8.68795 19.3184 8.96738C19.4343 9.24681 19.622 9.49062 19.8625 9.67406L20.5551 8.76541ZM21.9301 8.98828C21.4512 8.94028 21.1266 8.90828 20.8866 8.86484C20.642 8.82027 20.5722 8.77912 20.5551 8.76541L19.8625 9.67406C20.1025 9.85694 20.3962 9.93695 20.6854 9.98952C20.9791 10.0421 21.3575 10.081 21.8169 10.1267L21.9301 8.98828ZM23.0731 9.22373C22.9082 9.14237 22.7315 9.08759 22.5496 9.06143C22.3781 9.03286 22.1701 9.01229 21.9301 8.98828L21.8158 10.1255C22.0718 10.1518 22.2353 10.1678 22.361 10.1895C22.4256 10.1968 22.4888 10.2138 22.5484 10.2398L23.0731 9.22373ZM23.8811 10.1164C23.7286 9.73093 23.4415 9.4138 23.0731 9.22373L22.5484 10.2398C22.6713 10.303 22.7671 10.4086 22.8182 10.537L23.8811 10.1164ZM24.0011 11.2765C24.0011 11.0353 24.0011 10.8262 23.9897 10.6524C23.982 10.4692 23.9454 10.2882 23.8811 10.1164L22.8182 10.537C22.8273 10.561 22.841 10.609 22.849 10.729C22.8579 10.9117 22.861 11.0947 22.8582 11.2776L24.0011 11.2765ZM24.0011 12.7212V11.2765H22.8582V12.7212H24.0011ZM23.8811 13.8802C23.952 13.7019 23.9783 13.5236 23.9897 13.3441C24.0011 13.1715 24.0011 12.9624 24.0011 12.7212H22.8582C22.8582 12.9772 22.8582 13.1418 22.849 13.2687C22.8485 13.3339 22.8381 13.3986 22.8182 13.4607L23.8811 13.8802ZM23.0731 14.774C23.4417 14.5836 23.7288 14.2661 23.8811 13.8802L22.8182 13.4607C22.7671 13.5891 22.6713 13.6947 22.5484 13.7579L23.0731 14.774ZM21.9301 15.0094C22.1701 14.9854 22.3793 14.9637 22.5496 14.9351C22.7267 14.9066 22.9016 14.862 23.0719 14.7751L22.5484 13.7579C22.4888 13.784 22.4256 13.8009 22.361 13.8082C22.2353 13.8299 22.0718 13.8459 21.8169 13.8722L21.9301 15.0094ZM20.5562 15.2323C20.5734 15.2186 20.6431 15.1763 20.8877 15.1329C21.1277 15.0894 21.4523 15.0563 21.9301 15.0094L21.8169 13.8722C21.795 13.8744 21.7732 13.8765 21.7516 13.8787C21.3224 13.9214 20.965 13.957 20.6843 14.0082C20.3962 14.0596 20.1036 14.1396 19.8625 14.3225L20.5562 15.2323ZM20.3356 15.7626C20.3223 15.6626 20.3357 15.5609 20.3745 15.4677C20.4132 15.3746 20.4759 15.2934 20.5562 15.2323L19.8625 14.3225C19.6218 14.5061 19.434 14.75 19.3181 15.0297C19.2023 15.3093 19.1626 15.6147 19.203 15.9147L20.3356 15.7626ZM21.1506 16.8919C20.9244 16.6244 20.7075 16.3491 20.5002 16.0667C20.3585 15.8632 20.3391 15.7832 20.3356 15.7626L19.2041 15.9158C19.2441 16.2153 19.395 16.4781 19.5619 16.7193C19.7333 16.9639 19.9733 17.2588 20.2659 17.6154L21.1506 16.8919ZM21.7918 17.8657C21.7328 17.6918 21.6468 17.5282 21.5369 17.3811C21.4133 17.214 21.2844 17.0509 21.1506 16.8919L20.2659 17.6154C20.2721 17.6229 20.2781 17.6303 20.2841 17.6376C20.436 17.8238 20.535 17.9451 20.6054 18.0451C20.646 18.096 20.6788 18.1526 20.7025 18.2132L21.7918 17.8657ZM21.7324 19.0692C21.8971 18.6885 21.9183 18.2609 21.7918 17.8657L20.7025 18.2132C20.7448 18.3448 20.7379 18.4874 20.6831 18.6143L21.7324 19.0692ZM20.9974 19.9733C21.1677 19.803 21.3152 19.6556 21.4295 19.5253C21.5483 19.3893 21.6558 19.2464 21.7324 19.0692L20.6831 18.6143C20.6532 18.6724 20.6147 18.7256 20.5688 18.7721C20.4459 18.9069 20.319 19.038 20.1882 19.1653L20.9974 19.9733ZM19.9756 20.9951L20.9974 19.9733L20.1882 19.1653L19.1675 20.1871L19.9756 20.9951ZM19.0704 21.7301C19.2464 21.6535 19.3904 21.5472 19.5264 21.4283C19.6567 21.314 19.8042 21.1654 19.9756 20.994L19.1675 20.1871C18.9858 20.3688 18.8692 20.4842 18.7744 20.5677C18.7275 20.6136 18.6739 20.6521 18.6155 20.682L19.0704 21.7301ZM17.8668 21.7906C18.2621 21.9168 18.6898 21.8952 19.0704 21.7301L18.6155 20.682C18.4888 20.7365 18.3468 20.7434 18.2154 20.7014L17.8668 21.7906ZM16.893 21.1483C17.0805 21.3015 17.2416 21.434 17.3834 21.5346C17.5297 21.6386 17.684 21.7324 17.8668 21.7906L18.2154 20.7014C18.1545 20.6778 18.0974 20.645 18.0463 20.6042C17.9001 20.495 17.7571 20.3814 17.6177 20.2636L16.893 21.1483ZM15.7638 20.3345C15.7844 20.3368 15.8644 20.3574 16.0678 20.4991C16.2678 20.6374 16.5216 20.8443 16.893 21.1483L17.6177 20.2636C17.2599 19.9722 16.9662 19.731 16.7204 19.5596C16.4804 19.3927 16.2153 19.2418 15.9158 19.2018L15.7638 20.3345ZM15.2334 20.554C15.2946 20.4739 15.3759 20.4114 15.4691 20.3728C15.5622 20.3343 15.6639 20.3211 15.7638 20.3345L15.9158 19.2018C15.6161 19.1615 15.3111 19.2012 15.0317 19.3168C14.7522 19.4324 14.5084 19.6199 14.3248 19.8602L15.2334 20.554ZM15.0106 21.9289C15.0586 21.45 15.0906 21.1254 15.134 20.8854C15.1786 20.6408 15.2197 20.5711 15.2334 20.554L14.3248 19.8602C14.1419 20.1002 14.0619 20.3951 14.0093 20.6831C13.9568 20.9769 13.9179 21.3552 13.8722 21.8146L15.0106 21.9289ZM14.7751 23.0719C14.8631 22.9005 14.9066 22.7256 14.9363 22.5484C14.966 22.377 14.9866 22.169 15.0106 21.9289L13.8722 21.8146C13.8563 21.997 13.8361 22.1788 13.8093 22.3598C13.8021 22.4245 13.7851 22.4877 13.759 22.5473L14.7751 23.0719ZM13.8825 23.88C14.2679 23.7274 14.5851 23.4403 14.7751 23.0719L13.759 22.5473C13.6958 22.6702 13.5903 22.766 13.4619 22.817L13.8825 23.88ZM12.7224 24C12.9635 24 13.1727 24 13.3464 23.9886C13.5247 23.9771 13.7042 23.9508 13.8825 23.88L13.4619 22.817C13.3998 22.8369 13.335 22.8473 13.2698 22.8479C13.1441 22.857 12.9784 22.857 12.7212 22.857L12.7224 24ZM11.2776 24H12.7224L12.7212 22.857H11.2776V24ZM10.1175 23.88C10.297 23.9508 10.4753 23.9771 10.6547 23.9886C10.8273 24 11.0365 24 11.2776 24V22.857C11.0216 22.857 10.857 22.857 10.7302 22.8479C10.665 22.8473 10.6002 22.8369 10.5381 22.817L10.1175 23.88ZM9.22488 23.0719C9.41495 23.4403 9.73207 23.7274 10.1175 23.88L10.5381 22.817C10.4097 22.766 10.3042 22.6702 10.241 22.5473L9.22488 23.0719ZM8.98943 21.9289C9.01343 22.169 9.03514 22.3781 9.06258 22.5484C9.09229 22.7256 9.13687 22.9005 9.22488 23.0719L10.241 22.5473C10.2149 22.4877 10.198 22.4245 10.1907 22.3598C10.1639 22.1792 10.1426 21.9977 10.1267 21.8158L8.98943 21.9289ZM8.76655 20.554C8.78026 20.5711 8.82141 20.6408 8.86599 20.8854C8.90942 21.1254 8.94142 21.4512 8.98943 21.9289L10.1267 21.8158C10.1264 21.8132 10.1262 21.8105 10.1259 21.8079C10.0805 21.3531 10.0429 20.9763 9.99067 20.6831C9.93923 20.3951 9.85922 20.1013 9.67521 19.8602L8.76655 20.554ZM8.23621 20.3345C8.33611 20.3211 8.43779 20.3343 8.53093 20.3728C8.62407 20.4114 8.70536 20.4739 8.76655 20.554L9.67521 19.8602C9.49176 19.6197 9.24795 19.4331 8.96852 19.3173C8.6891 19.2015 8.384 19.1616 8.0842 19.2018L8.23621 20.3345ZM7.10696 21.1494C7.47843 20.8443 7.73216 20.6374 7.93218 20.4991C8.13677 20.3574 8.21564 20.3368 8.23621 20.3345L8.0842 19.2018C7.78474 19.2418 7.52072 19.3927 7.27955 19.5607C7.04078 19.7262 6.75669 19.9586 6.41259 20.24C6.40255 20.2482 6.39246 20.2565 6.38232 20.2648L7.10696 21.1494ZM6.13316 21.7906C6.31603 21.7324 6.47033 21.6398 6.61663 21.5358C6.75836 21.4352 6.91952 21.3026 7.10696 21.1494L6.38232 20.2648C6.24285 20.3822 6.09991 20.4954 5.95371 20.6042C5.90259 20.645 5.84555 20.6778 5.78455 20.7014L6.13316 21.7906ZM4.92961 21.7324C5.31039 21.8971 5.738 21.9171 6.13316 21.7906L5.78455 20.7014C5.65323 20.7434 5.51115 20.7365 5.38451 20.682L4.92961 21.7324ZM4.02438 20.9951C4.19583 21.1666 4.34327 21.3152 4.47357 21.4295C4.60844 21.5472 4.7536 21.6558 4.92961 21.7324L5.38451 20.682C5.32606 20.6522 5.27248 20.6136 5.22564 20.5677C5.09085 20.4447 4.95973 20.3178 4.83246 20.1871L4.02438 20.9951ZM3.00371 19.9745L4.02438 20.9951L4.83246 20.1871L3.81179 19.1664L3.00371 19.9745ZM2.26764 19.0692C2.34422 19.2453 2.45166 19.3893 2.57053 19.5253C2.68483 19.6556 2.83341 19.803 3.00371 19.9745L3.81179 19.1664C3.68068 19.0391 3.55337 18.908 3.43004 18.7732C3.38412 18.7264 3.34558 18.6728 3.31574 18.6143L2.26764 19.0692ZM2.20821 17.8657C2.08174 18.2609 2.10285 18.6885 2.26764 19.0692L3.31574 18.6143C3.26085 18.4878 3.25468 18.3458 3.29631 18.2143L2.20821 17.8657ZM2.84941 16.8919C2.69626 17.0793 2.56367 17.2405 2.46309 17.3822C2.35328 17.529 2.26727 17.6922 2.20821 17.8657L3.29631 18.2143C3.32031 18.1533 3.35346 18.0962 3.39461 18.0451C3.46776 17.9423 3.57177 17.8143 3.73407 17.6165L2.84941 16.8919ZM3.66435 15.7626C3.66092 15.7832 3.64149 15.8621 3.49976 16.0667C3.36032 16.2667 3.15459 16.5204 2.84941 16.8919L3.73407 17.6165C3.74235 17.6064 3.7506 17.5963 3.7588 17.5863C4.04027 17.2422 4.27266 16.9581 4.43814 16.7193C4.60615 16.4793 4.75702 16.2141 4.79703 15.9147L3.66435 15.7626ZM3.4449 15.2323C3.525 15.2935 3.58749 15.3748 3.62603 15.4679C3.66457 15.5611 3.67779 15.6627 3.66435 15.7626L4.79703 15.9147C4.83722 15.6149 4.79739 15.3098 4.68156 15.0303C4.56574 14.7509 4.37804 14.5071 4.13754 14.3236L3.4449 15.2323ZM2.06991 15.0106C2.54881 15.0574 2.87342 15.0894 3.11344 15.1329C3.35803 15.1774 3.42775 15.2186 3.4449 15.2323L4.13754 14.3225C3.89751 14.1396 3.60377 14.0596 3.3146 14.0082C3.02086 13.9556 2.64254 13.9168 2.18306 13.871L2.06991 15.0106ZM0.926946 14.774C1.09839 14.862 1.27326 14.9054 1.45042 14.9351C1.62187 14.9649 1.82875 14.9866 2.06991 15.0106L2.18421 13.8722C2.00187 13.8563 1.82006 13.835 1.63901 13.8082C1.57436 13.8009 1.51118 13.7839 1.45157 13.7579L0.926946 14.774ZM0.118868 13.8802C0.271211 14.2661 0.558315 14.5836 0.926946 14.774L1.45157 13.7579C1.32868 13.6947 1.23286 13.5891 1.18183 13.4607L0.118868 13.8802ZM0 12.7235C0 12.9647 -1.11759e-08 13.1738 0.0114296 13.3476C0.0188267 13.5305 0.0554851 13.7111 0.120011 13.8825L1.18297 13.463C1.1631 13.4009 1.1527 13.3362 1.15211 13.271C1.14362 13.0882 1.14057 12.9053 1.14297 12.7224L0 12.7235ZM0 11.2788V12.7235H1.14297V11.2788H0ZM0.120011 10.1187C0.0557347 10.2909 0.0190885 10.4722 0.0114296 10.6559C-1.11759e-08 10.8285 0 11.0376 0 11.2788H1.14297C1.14297 11.0228 1.14297 10.8582 1.15211 10.7313C1.15266 10.6661 1.16307 10.6014 1.18297 10.5393L0.120011 10.1187ZM0.928088 9.22602C0.559664 9.41609 0.272587 9.73321 0.120011 10.1187L1.18297 10.5393C1.234 10.4109 1.32983 10.3053 1.45271 10.2421L0.928088 9.22602ZM2.07105 8.98943C1.83103 9.01343 1.62187 9.03629 1.45157 9.06372C1.26961 9.08988 1.09293 9.14465 0.928088 9.22602L1.45271 10.2421C1.47557 10.2307 1.52129 10.2113 1.64016 10.1918C1.76588 10.1701 1.92933 10.1541 2.18421 10.1278L2.07105 8.98943ZM3.44604 8.76769C3.4289 8.78141 3.35918 8.82255 3.11458 8.86713C2.87456 8.91056 2.54996 8.94142 2.07105 8.98943L2.18421 10.1278C2.18898 10.1273 2.19374 10.1269 2.19849 10.1264C2.65045 10.0813 3.0262 10.0438 3.31689 9.99181C3.60606 9.94037 3.8998 9.86037 4.13982 9.67635L3.44604 8.76769ZM3.66549 8.23736C3.67893 8.33725 3.66571 8.43893 3.62717 8.53207C3.58863 8.62521 3.52614 8.7065 3.44604 8.76769L4.13982 9.67635C4.38012 9.49277 4.56759 9.24891 4.68321 8.96949C4.79884 8.69007 4.8385 8.38389 4.79817 8.0842L3.66549 8.23736ZM2.85056 7.10696C3.15573 7.47957 3.36261 7.73331 3.50205 7.93333C3.64378 8.13792 3.66206 8.21678 3.66549 8.23736L4.79817 8.0842C4.75817 7.78474 4.6073 7.52186 4.43928 7.28069C4.2738 7.04192 4.04142 6.75782 3.75996 6.41372C3.75175 6.40369 3.7435 6.3936 3.73521 6.38346L2.85056 7.10696ZM2.20935 6.13316C2.2665 6.31603 2.36022 6.47147 2.46423 6.61777C2.56482 6.75836 2.6974 6.92066 2.85056 7.10696L3.73521 6.38346C3.61782 6.24361 3.50462 6.1003 3.39575 5.95371C3.3547 5.90298 3.32156 5.84634 3.29746 5.78569L2.20935 6.13316ZM2.26879 4.93076C2.10428 5.31119 2.08317 5.73835 2.20935 6.13316L3.29746 5.78569C3.25583 5.65423 3.26313 5.51215 3.31803 5.38566L2.26879 4.93076ZM3.00486 4.02553C2.83341 4.19583 2.68483 4.34327 2.57053 4.47471C2.44658 4.6099 2.34475 4.76381 2.26879 4.93076L3.31803 5.38566C3.34795 5.32761 3.38649 5.27329 3.43233 5.22678C3.55477 5.09151 3.68171 4.96038 3.81293 4.8336L3.00486 4.02553ZM4.02553 3.00371L3.00486 4.02553L3.81293 4.8336L4.8336 3.81179L4.02553 3.00371ZM4.93076 2.26879C4.76386 2.34483 4.60996 2.44666 4.47471 2.57053C4.34441 2.68483 4.19583 2.83227 4.02553 3.00371L4.8336 3.81179C5.01533 3.6312 5.13192 3.51462 5.22678 3.43118C5.31822 3.35118 5.36165 3.32832 5.38566 3.31689L4.93076 2.26879ZM6.1343 2.20821C5.739 2.0821 5.31139 2.10362 4.93076 2.26879L5.38566 3.31689C5.51215 3.26199 5.65423 3.25583 5.78569 3.29746L6.1343 2.20821ZM7.1081 2.85056C6.92066 2.6974 6.7595 2.56482 6.61777 2.46423C6.4711 2.35398 6.30793 2.26757 6.1343 2.20821L5.78569 3.29746C5.84667 3.3211 5.9037 3.35386 5.95485 3.39461C6.05772 3.4689 6.18573 3.57291 6.38461 3.73521L7.1081 2.85056ZM8.23736 3.66549C8.21678 3.66206 8.13792 3.64263 7.93333 3.5009C7.65084 3.2933 7.3756 3.07715 7.1081 2.85056L6.38461 3.73521C6.74121 4.02781 7.0361 4.26898 7.28069 4.43928C7.52072 4.60615 7.78588 4.75702 8.08534 4.79817L8.23736 3.66549ZM8.76769 3.4449C8.70663 3.52521 8.6254 3.58792 8.53225 3.62666C8.4391 3.66541 8.33736 3.67881 8.23736 3.66549L8.08534 4.79817C8.38522 4.83871 8.69048 4.79801 8.97012 4.68238C9.24976 4.56675 9.49382 4.37916 9.67749 4.13868L8.76769 3.4449ZM8.99057 2.07105C8.94257 2.54881 8.91056 2.87456 8.86713 3.11344C8.82255 3.35803 8.78141 3.42775 8.76769 3.4449L9.67749 4.13868C9.86037 3.89866 9.94037 3.60491 9.99181 3.31574C10.0444 3.022 10.0832 2.64368 10.129 2.18421L8.99057 2.07105ZM9.22602 0.928088C9.13801 1.09953 9.09344 1.27441 9.06372 1.45157C9.03515 1.62301 9.01457 1.82989 8.99057 2.07105L10.1278 2.18535C10.1437 2.00302 10.165 1.8212 10.1918 1.64016C10.199 1.57549 10.216 1.5123 10.2421 1.45271L9.22602 0.928088ZM10.1198 0.120011C9.73374 0.272637 9.41615 0.559028 9.22602 0.928088L10.2421 1.45271C10.3053 1.32983 10.4109 1.234 10.5393 1.18297L10.1198 0.120011ZM11.2788 0C11.0376 0 10.8285 -1.11759e-08 10.6547 0.0114296C10.4718 0.0188267 10.2912 0.055485 10.1198 0.120011L10.5393 1.18297C10.6014 1.16307 10.6661 1.15266 10.7313 1.15211C10.857 1.14297 11.0228 1.14297 11.2799 1.14297L11.2788 0ZM12.7235 0H11.2788V1.14297H12.7235V0ZM13.8836 0.120011C13.7114 0.0557161 13.5301 0.0190694 13.3464 0.0114296C13.1738 -1.11759e-08 12.9647 0 12.7235 0V1.14297C12.9795 1.14297 13.1441 1.14297 13.271 1.15211C13.3361 1.15303 13.4008 1.16343 13.463 1.18297L13.8836 0.120011ZM14.7763 0.928088C14.5859 0.559458 14.2684 0.272354 13.8825 0.120011L13.463 1.18297C13.5914 1.234 13.697 1.32983 13.7602 1.45271L14.7763 0.928088ZM16.0015 12C16.0015 13.061 15.5801 14.0785 14.8298 14.8287C14.0796 15.5789 13.0621 16.0004 12.0011 16.0004V17.1433C13.3652 17.1433 14.6735 16.6015 15.638 15.6369C16.6026 14.6723 17.1445 13.3641 17.1445 12H16.0015ZM12.0011 7.99962C13.0621 7.99962 14.0796 8.42109 14.8298 9.1713C15.5801 9.92152 16.0015 10.939 16.0015 12H17.1445C17.1445 10.6359 16.6026 9.32767 15.638 8.3631C14.6735 7.39854 13.3652 6.85665 12.0011 6.85665V7.99962ZM8.00076 12C8.00076 10.939 8.42223 9.92152 9.17245 9.1713C9.92266 8.42109 10.9402 7.99962 12.0011 7.99962V6.85665C10.637 6.85665 9.32881 7.39854 8.36425 8.3631C7.39968 9.32767 6.8578 10.6359 6.8578 12H8.00076ZM12.0011 16.0004C10.9402 16.0004 9.92266 15.5789 9.17245 14.8287C8.42223 14.0785 8.00076 13.061 8.00076 12H6.8578C6.8578 13.3641 7.39968 14.6723 8.36425 15.6369C9.32881 16.6015 10.637 17.1433 12.0011 17.1433V16.0004Z" fill="#6078E0"/>
</svg>
